<?xml version="1.0" encoding="UTF-8"?>
<svg version="1.1" xmlns="http://www.w3.org/2000/svg" width="1024" height="1536">
<path d="M0 0 C337.92 0 675.84 0 1024 0 C1024 506.88 1024 1013.76 1024 1536 C686.08 1536 348.16 1536 0 1536 C0 1029.12 0 522.24 0 0 Z " fill="#FDFDFD" transform="translate(0,0)"/>
<path d="M0 0 C17.11754852 -0.16043524 17.11754852 -0.16043524 24.50585938 -0.1953125 C29.51539402 -0.219074 34.52463178 -0.24694926 39.53393555 -0.30175781 C43.5799627 -0.34574153 47.62567079 -0.36924569 51.67191887 -0.37950897 C53.20304311 -0.38680748 54.73415313 -0.40105448 56.26513863 -0.42292023 C74.90519075 -0.67815522 90.85224091 3.53630821 104.71875 16.72265625 C105.84796875 17.84994141 105.84796875 17.84994141 107 19 C107.6496875 19.63808594 108.299375 20.27617188 108.96875 20.93359375 C119.15003833 31.67306675 122.36960645 44.20678664 122.4375 58.5625 C122.47037109 59.76197266 122.50324219 60.96144531 122.53710938 62.19726562 C122.62214809 76.52242305 116.76265334 87.35601999 109 99 C109.74636719 99.26167969 110.49273437 99.52335938 111.26171875 99.79296875 C121.02215037 104.09535587 127.18008649 115.66770901 131.3203125 124.96484375 C132.3265299 127.62200303 133.20073282 130.27407824 134 133 C134.22429687 133.7115625 134.44859375 134.423125 134.6796875 135.15625 C138.97301403 150.91805151 135.23672733 169.74036863 127.37109375 183.87890625 C124.83026787 187.80958561 122.00709128 191.41802362 119 195 C118.42765625 195.74121094 117.8553125 196.48242188 117.265625 197.24609375 C105.82123222 211.35595407 86.84163934 219.33377659 69.16635132 221.78713226 C64.64899335 222.23101214 60.11125899 222.15634056 55.57617188 222.16113281 C54.44522598 222.16609772 53.31428009 222.17106262 52.14906311 222.17617798 C48.42228581 222.19073761 44.69555102 222.19758977 40.96875 222.203125 C38.37235514 222.20887969 35.77596028 222.21463738 33.17956543 222.22039795 C28.43633157 222.22955036 23.69311461 222.2358591 18.94987345 222.2388947 C11.98320603 222.24337912 5.01673444 222.26095633 -1.94987345 222.2898953 C-8.00097338 222.31415321 -14.05198088 222.32184058 -20.10313416 222.32357025 C-22.67074146 222.32659559 -25.23834797 222.33462008 -27.80592346 222.34775543 C-31.39615749 222.36481804 -34.98591371 222.3629353 -38.57617188 222.35644531 C-39.63404404 222.3656601 -40.6919162 222.37487488 -41.78184509 222.3843689 C-48.3151577 222.34739085 -53.64996001 222.03548164 -58.73221016 217.430439 C-63.67735158 211.80959324 -63.82758594 206.59104094 -63.68115234 199.3515625 C-63.68187555 198.1908725 -63.68259876 197.0301825 -63.68334389 195.83432007 C-63.67888458 192.09716493 -63.63328651 188.36183159 -63.5859375 184.625 C-63.57710978 182.30990462 -63.57099241 179.99479727 -63.56762695 177.6796875 C-63.53623924 169.1196084 -63.45247137 160.55978608 -63.375 152 C-63.25125 132.86 -63.1275 113.72 -63 94 C-24.06 93.67 14.88 93.34 55 93 C55 92.34 55 91.68 55 91 C55.763125 90.505 56.52625 90.01 57.3125 89.5 C62.08961659 85.05617061 63.10640459 78.74306848 63.4375 72.375 C63.23647105 67.64244348 61.92068672 63.75274282 59 60 C54.51552093 56.47356873 49.80584901 54.89624921 44.16137695 54.79467773 C43.16690552 54.77449585 42.17243408 54.75431396 41.14782715 54.73352051 C40.105177 54.71704468 39.06252686 54.70056885 37.98828125 54.68359375 C37.02805054 54.66494263 36.06781982 54.6462915 35.07849121 54.6270752 C31.48992149 54.55875247 27.90119962 54.49861974 24.3125 54.4375 C12.2778125 54.2209375 12.2778125 54.2209375 0 54 C0 36.18 0 18.36 0 0 Z " fill="#28CA74" transform="translate(197,610)"/>
<path d="M0 0 C20.79 0 41.58 0 63 0 C63 8.25 63 16.5 63 25 C82.14 25 101.28 25 121 25 C121 23.35 121 21.7 121 20 C121.495 21.98 121.495 21.98 122 24 C129.68516184 23.98507807 137.3697884 23.94327484 145.05458832 23.86790943 C148.62371591 23.83373522 152.19241986 23.80854459 155.76171875 23.80444336 C159.21158393 23.80013949 162.66049502 23.77150776 166.11006165 23.72656822 C168.05517466 23.70741117 170.00048067 23.7129303 171.94567871 23.71894836 C180.66529344 23.57629102 185.82405239 22.02791961 192.09375 15.98046875 C192.5578125 15.38878906 193.021875 14.79710937 193.5 14.1875 C194.22703125 13.28064453 194.22703125 13.28064453 194.96875 12.35546875 C195.3090625 11.90816406 195.649375 11.46085938 196 11 C198.02781522 13.81440547 197.99526263 15.03327176 197.49609375 18.5390625 C197.16191152 19.90574567 196.80798717 21.26770861 196.4375 22.625 C196.15386597 23.69633179 196.15386597 23.69633179 195.86450195 24.78930664 C193.13229266 34.64330404 188.54763979 42.20060555 182 50 C181.42765625 50.74121094 180.8553125 51.48242188 180.265625 52.24609375 C168.82123222 66.35595407 149.84163934 74.33377659 132.16635132 76.78713226 C127.64899335 77.23101214 123.11125899 77.15634056 118.57617188 77.16113281 C116.87975304 77.16858017 116.87975304 77.16858017 115.14906311 77.17617798 C111.42228581 77.19073761 107.69555102 77.19758977 103.96875 77.203125 C101.37235514 77.20887969 98.77596028 77.21463738 96.17956543 77.22039795 C91.43633157 77.22955036 86.69311461 77.2358591 81.94987345 77.2388947 C74.98320603 77.24337912 68.01673444 77.26095633 61.05012655 77.2898953 C54.99902662 77.31415321 48.94801912 77.32184058 42.89686584 77.32357025 C40.32925854 77.32659559 37.76165203 77.33462008 35.19407654 77.34775543 C31.60384251 77.36481804 28.01408629 77.3629353 24.42382812 77.35644531 C23.36595596 77.3656601 22.3080838 77.37487488 21.21815491 77.3843689 C14.44016774 77.34600601 9.55105279 76.71058997 4.02450562 72.49206543 C-1.35068547 65.97421324 -0.76636363 58.78887965 -0.5859375 50.78125 C-0.57472912 49.31296533 -0.5661967 47.84465802 -0.56021118 46.37634277 C-0.53744081 42.53544776 -0.47862463 38.69594177 -0.4119873 34.85559082 C-0.33943806 30.23518576 -0.31220212 25.61431289 -0.27726746 20.99349976 C-0.21933261 13.99470423 -0.10428897 6.99894857 0 0 Z " fill="#08A180" transform="translate(134,755)"/>
<path d="M0 0 C55.11 0 110.22 0 167 0 C160.75772931 10.40378448 151.46886426 18.64291719 142.875 27.125 C129.05187766 38.92904903 129.05187766 38.92904903 122.71875 54.7109375 C122.68136719 55.62617187 122.64398438 56.54140625 122.60546875 57.484375 C122.57066406 58.43828125 122.53585937 59.3921875 122.5 60.375 C122.43073616 62.25795042 122.3579315 64.14077457 122.28125 66.0234375 C122.25095703 66.85794434 122.22066406 67.69245117 122.18945312 68.55224609 C122 71 122 71 121 76 C101.86 76 82.72 76 63 76 C63 67.75 63 59.5 63 51 C42.21 51 21.42 51 0 51 C0 34.17 0 17.34 0 0 Z " fill="#21AE7F" transform="translate(134,704)"/>
<path d="M0 0 C56.95720443 0 56.95720443 0 65.5625 8.3984375 C71.31297599 14.80521781 71.64021681 19.85105342 71.37890625 28.3984375 C70.67891786 35.05193536 68.44781836 38.90568037 63.5625 43.375 C60.87028635 45.51020393 58.31949042 46.99409381 55 48 C56.94514847 48.99198259 58.87827713 49.94930305 60.89453125 50.7890625 C66.58793016 53.27050316 70.52466 56.84239397 74 62 C76.66415521 69.19789302 76.16430447 79.5979936 73 86.5 C66.30940059 97.6141362 59.2136445 98.87073609 46 103 C30.82 103 15.64 103 0 103 C0 69.01 0 35.02 0 0 Z " fill="#07594A" transform="translate(377,666)"/>
<path d="M0 0 C0.91688599 0.00100708 1.83377197 0.00201416 2.77844238 0.00305176 C6.17652654 0.00825126 9.57459276 0.02221234 12.97265625 0.03515625 C24.38859375 0.06609375 24.38859375 0.06609375 36.03515625 0.09765625 C36.03515625 30.45765625 36.03515625 60.81765625 36.03515625 92.09765625 C15.90515625 92.09765625 -4.22484375 92.09765625 -24.96484375 92.09765625 C-25.08517018 72.1234692 -25.08517018 72.1234692 -25.11132812 63.59765625 C-25.12924926 57.78409595 -25.15043162 51.97067764 -25.19116211 46.15722656 C-25.2238003 41.46935598 -25.24170622 36.78163771 -25.24947548 32.09366226 C-25.25501097 30.30671924 -25.26582049 28.51978438 -25.28203392 26.73290634 C-25.3038676 24.22654063 -25.30680822 21.72080125 -25.30541992 19.21435547 C-25.31620575 18.4785173 -25.32699158 17.74267914 -25.33810425 16.98454285 C-25.3033695 11.17467849 -23.68034105 7.3645634 -20.21484375 2.78515625 C-14.85443718 -1.23514868 -6.40656413 -0.03347873 0 0 Z " fill="#2ABE80" transform="translate(158.96484375,609.90234375)"/>
<path d="M0 0 C8.20398561 -0.35423081 15.56102821 1.89983153 21.94921875 7.15234375 C30.3668863 16.05524026 32.59395526 26.09971321 32.48999023 38.01831055 C32.06005423 49.10758055 28.08017628 59.3909752 19.94921875 67.15234375 C17.3899762 68.88826408 14.85213282 70.10512428 11.94921875 71.15234375 C11.00820313 71.50683594 10.0671875 71.86132812 9.09765625 72.2265625 C1.20799335 74.54647579 -6.81353399 73.99480351 -14.1484375 70.3203125 C-16.20099273 69.06011945 -18.1239485 67.59746832 -20.05078125 66.15234375 C-20.38078125 78.36234375 -20.71078125 90.57234375 -21.05078125 103.15234375 C-26.66078125 103.15234375 -32.27078125 103.15234375 -38.05078125 103.15234375 C-38.05078125 69.49234375 -38.05078125 35.83234375 -38.05078125 1.15234375 C-33.10078125 1.15234375 -28.15078125 1.15234375 -23.05078125 1.15234375 C-21.46805524 2.73506976 -21.70342378 4.53268378 -21.48828125 6.71484375 C-21.36259766 7.95427734 -21.36259766 7.95427734 -21.234375 9.21875 C-21.17378906 9.85683594 -21.11320313 10.49492188 -21.05078125 11.15234375 C-20.57640625 10.43046875 -20.10203125 9.70859375 -19.61328125 8.96484375 C-14.21941582 3.04474755 -7.85988382 0.58387708 0 0 Z " fill="#0A5C4C" transform="translate(751.05078125,696.84765625)"/>
<path d="M0 0 C20.79 0 41.58 0 63 0 C64.14948694 28.73717351 64.14948694 28.73717351 64.09765625 38.37890625 C64.09664917 39.3366394 64.09564209 40.29437256 64.09460449 41.28112793 C64.0895475 44.70826493 64.07559431 48.13538428 64.0625 51.5625 C64.041875 59.296875 64.02125 67.03125 64 75 C85.78 75 107.56 75 130 75 C130 75.66 130 76.32 130 77 C114.86602893 77.0701572 99.73206538 77.12302102 84.5979681 77.15543652 C77.5705464 77.17088931 70.54322589 77.19194828 63.51586914 77.22631836 C56.73371485 77.2594733 49.95166574 77.27685514 43.1694355 77.28463173 C40.58228463 77.29017351 37.99513949 77.3009952 35.40803337 77.31719017 C31.7835333 77.33897615 28.15946716 77.34196635 24.53491211 77.34057617 C23.46604263 77.351362 22.39717316 77.36214783 21.2959137 77.3732605 C14.48168476 77.34499127 9.58048915 76.73305933 4.02450562 72.49206543 C-1.35068547 65.97421324 -0.76636363 58.78887965 -0.5859375 50.78125 C-0.57472912 49.31296533 -0.5661967 47.84465802 -0.56021118 46.37634277 C-0.53744081 42.53544776 -0.47862463 38.69594177 -0.4119873 34.85559082 C-0.33943806 30.23518576 -0.31220212 25.61431289 -0.27726746 20.99349976 C-0.21933261 13.99470423 -0.10428897 6.99894857 0 0 Z " fill="#045B4C" transform="translate(134,755)"/>
<path d="M0 0 C7.27484444 5.48311718 11.800605 11.4117684 14.1953125 20.234375 C14.46786835 23.0322872 14.47530428 25.80014474 14.4453125 28.609375 C14.45691406 29.68445313 14.45691406 29.68445313 14.46875 30.78125 C14.43093542 41.25588939 11.07700585 50.80022097 4.03125 58.6328125 C-5.14662013 66.63903963 -17.0127839 68.18760894 -28.69970703 67.47265625 C-37.20694586 66.50964708 -45.42810762 61.85630969 -50.8046875 55.234375 C-57.66867757 43.92456204 -59.78170723 32.02419559 -57.15625 19.0234375 C-55.03632241 12.55494049 -51.74393886 7.8687343 -46.8046875 3.234375 C-46.21945312 2.6671875 -45.63421875 2.1 -45.03125 1.515625 C-32.90525514 -8.9219402 -13.03298891 -8.2046114 0 0 Z " fill="#075A4A" transform="translate(686.8046875,702.765625)"/>
<path d="M0 0 C0.66 0 1.32 0 2 0 C2.3403125 1.2065625 2.3403125 1.2065625 2.6875 2.4375 C3.120625 3.283125 3.55375 4.12875 4 5 C4.763125 5.14050781 5.52625 5.28101563 6.3125 5.42578125 C12.50841187 6.74961707 16.70441486 13.18891795 20.21875 18.1015625 C24.49278751 24.78373309 27.76836666 31.38895577 30 39 C30.22429687 39.7115625 30.44859375 40.423125 30.6796875 41.15625 C32.59281352 48.17978116 32.58853975 55.78173309 32 63 C31.34 63.99 30.68 64.98 30 66 C29.67 65.01 29.34 64.02 29 63 C28.6596875 63.44730469 28.319375 63.89460937 27.96875 64.35546875 C27.4840625 64.96003906 26.999375 65.56460938 26.5 66.1875 C26.0359375 66.77917969 25.571875 67.37085938 25.09375 67.98046875 C18.79272611 74.05813545 13.72004397 75.56924247 4.94567871 75.56648254 C3.038974 75.5277729 3.038974 75.5277729 1.09375 75.48828125 C-0.24001735 75.47893868 -1.57380203 75.4718294 -2.90759277 75.46684265 C-6.39323529 75.4478854 -9.87781162 75.39888693 -13.36303711 75.34332275 C-16.92937808 75.29188318 -20.49589382 75.26927637 -24.0625 75.24414062 C-31.04210059 75.19075333 -38.0209989 75.10558138 -45 75 C-45.08729047 70.93763598 -45.14048992 66.87551411 -45.1875 62.8125 C-45.22520508 61.08676758 -45.22520508 61.08676758 -45.26367188 59.32617188 C-45.27333984 58.21435547 -45.28300781 57.10253906 -45.29296875 55.95703125 C-45.3086792 54.93585205 -45.32438965 53.91467285 -45.34057617 52.86254883 C-44.61844685 46.79303894 -40.23200305 42.8322828 -36.1875 38.5625 C-35.59582031 37.93142334 -35.00414062 37.30034668 -34.39453125 36.65014648 C-30.46563038 32.49689196 -26.45176494 28.4338271 -22.39453125 24.40625 C-21.90921432 23.92397446 -21.4238974 23.44169891 -20.9238739 22.94480896 C-18.50456849 20.54319499 -16.07815142 18.14980246 -13.64135742 15.76586914 C-9.02827919 11.21290958 -4.78300338 6.75217808 -1.13867188 1.37866211 C-0.76291016 0.92370361 -0.38714844 0.46874512 0 0 Z " fill="#29856F" transform="translate(301,704)"/>
<path d="M0 0 C5.3461054 3.96868694 9.17009851 8.5139701 11 15 C11.40111865 19.09676818 11.34966893 23.16437734 11.29296875 27.27734375 C11.28872391 28.4438295 11.28447906 29.61031525 11.28010559 30.81214905 C11.26337522 34.52083874 11.22573221 38.22897582 11.1875 41.9375 C11.17244593 44.4589765 11.15875879 46.98046156 11.14648438 49.50195312 C11.11348997 55.66818017 11.06174553 61.83399653 11 68 C6.05 68 1.1 68 -4 68 C-4 64.7 -4 61.4 -4 58 C-4.68964844 58.54269531 -5.37929688 59.08539062 -6.08984375 59.64453125 C-14.91724081 66.36497757 -21.77327792 69.71896381 -32.99609375 69.41796875 C-39.18387592 68.55698996 -44.11136363 65.88863637 -48.5 61.5 C-52.3164462 55.13925633 -52.9120798 49.31564004 -52 42 C-49.79126647 35.98514529 -45.53360983 32.03854468 -40 29 C-32.05091102 25.61740894 -23.48504639 25.86142717 -15 25.9375 C-14.03449219 25.94201172 -13.06898438 25.94652344 -12.07421875 25.95117188 C-9.71607911 25.96284583 -7.35807398 25.97921979 -5 26 C-5.10947321 24.56026713 -5.23335847 23.12162546 -5.36328125 21.68359375 C-5.43071533 20.88236084 -5.49814941 20.08112793 -5.56762695 19.25561523 C-6.26361507 15.6247659 -8.09012341 14.1339095 -11 12 C-18.80711987 8.00123129 -28.06063669 9.48154186 -36.0625 12.0625 C-37.12597656 12.44535156 -38.18945312 12.82820312 -39.28515625 13.22265625 C-42 14 -42 14 -45 13 C-45.33 9.37 -45.66 5.74 -46 2 C-31.73939869 -4.51861033 -14.46862406 -7.28532975 0 0 Z " fill="#065949" transform="translate(843,701)"/>
<path d="M0 0 C5.28 0 10.56 0 16 0 C16 21.45 16 42.9 16 65 C16.66 65 17.32 65 18 65 C18.23332031 64.44828125 18.46664062 63.8965625 18.70703125 63.328125 C20.34019284 60.38744733 22.39339207 58.20922749 24.6875 55.75 C31.84516837 48.32233308 31.84516837 48.32233308 38.18994141 40.22436523 C40.257208 37.36424876 41.74583326 35.31191852 45.26367188 34.43701172 C47.83432968 34.31192258 50.30769297 34.38657761 52.875 34.5625 C53.75414062 34.59408203 54.63328125 34.62566406 55.5390625 34.65820312 C57.69416087 34.74019056 59.847526 34.86573677 62 35 C52.95532016 45.6002666 43.50043948 55.8094204 34 66 C35.36266644 70.03805866 37.1409151 72.54368118 40.0625 75.625 C45.77847197 81.79898254 51.06464524 88.27784912 56.2734375 94.8828125 C57.34464844 96.24019531 57.34464844 96.24019531 58.4375 97.625 C59.07558594 98.44226563 59.71367188 99.25953125 60.37109375 100.1015625 C61.8697808 102.09638567 61.8697808 102.09638567 64 103 C64 103.66 64 104.32 64 105 C46.59651215 106.61603816 46.59651215 106.61603816 41.3828125 103.37109375 C39.34698934 100.69737933 37.71861268 97.88916383 36 95 C33.71067908 91.99081167 31.2935509 89.09319386 28.875 86.1875 C28.28799316 85.45861572 27.70098633 84.72973145 27.09619141 83.97875977 C26.24033447 82.92773071 26.24033447 82.92773071 25.3671875 81.85546875 C24.86300293 81.23309326 24.35881836 80.61071777 23.83935547 79.96948242 C21.45282189 77.41411125 18.68608044 75.23840037 16 73 C16 83.56 16 94.12 16 105 C10.72 105 5.44 105 0 105 C0 70.35 0 35.7 0 0 Z " fill="#055647" transform="translate(566,664)"/>
<path d="M0 0 C0.66 0 1.32 0 2 0 C2 17.82 2 35.64 2 54 C17.72086189 53.84215665 17.72086189 53.84215665 33.44116211 53.63964844 C35.42821387 53.62795386 37.41527529 53.61776386 39.40234375 53.609375 C40.4142981 53.58891113 41.42625244 53.56844727 42.46887207 53.54736328 C49.07745989 53.5441486 54.30266308 54.51867263 60 58 C64.1866855 62.1866855 66.07474468 66.30564019 66.3125 72.1875 C66.15467259 78.47955256 64.8677483 84.6228658 60.9375 89.625 C59 91 59 91 57 91 C57 91.66 57 92.32 57 93 C73.5 93 90 93 107 93 C107 93.33 107 93.66 107 94 C51.56 94 -3.88 94 -61 94 C-61 93.34 -61 92.68 -61 92 C-40.87 92 -20.74 92 0 92 C0 61.64 0 31.28 0 0 Z " fill="#F3FBF7" transform="translate(195,610)"/>
<path d="M0 0 C18.81 0 37.62 0 57 0 C57 12.35551664 57 12.35551664 53.1875 16.375 C52.36378906 17.2825 51.54007813 18.19 50.69140625 19.125 C49.80324219 20.07375 48.91507813 21.0225 48 22 C46.18345766 24.10427837 44.40671082 26.2412165 42.625 28.375 C41.69780404 29.4710594 40.76940728 30.56610406 39.83984375 31.66015625 C39.37433105 32.20816895 38.90881836 32.75618164 38.42919922 33.32080078 C36.97709108 35.02691622 35.52193582 36.7303968 34.06640625 38.43359375 C33.58413574 38.99965332 33.10186523 39.56571289 32.60498047 40.14892578 C31.27358218 41.71147279 29.93961355 43.27182864 28.60546875 44.83203125 C25.62024178 48.46174501 22.81977033 52.24030622 20 56 C32.54 56.33 45.08 56.66 58 57 C58 61.29 58 65.58 58 70 C38.2 70 18.4 70 -2 70 C-2 56.65395659 -2 56.65395659 2.1640625 52.171875 C2.74929688 51.59953125 3.33453125 51.0271875 3.9375 50.4375 C5.14579237 49.15613595 6.35281944 47.8735776 7.55859375 46.58984375 C8.15140137 45.97737793 8.74420898 45.36491211 9.35498047 44.73388672 C11.54213104 42.42858198 13.52322241 39.98667536 15.5 37.5 C19.70928357 32.29891863 24.08073482 27.24929686 28.484375 22.21289062 C29.01160156 21.60896484 29.53882813 21.00503906 30.08203125 20.3828125 C30.78162964 19.58447998 30.78162964 19.58447998 31.49536133 18.77001953 C33.37913376 16.55399647 35.18307611 14.27115486 37 12 C24.79 12 12.58 12 0 12 C0 8.04 0 4.08 0 0 Z " fill="#065849" transform="translate(496,699)"/>
<path d="M0 0 C5.56031418 3.12306072 9.28229725 7.98538397 11.23046875 14.0546875 C12.84583827 22.74537553 11.93013012 31.38996351 7.62109375 39.15625 C4.67384104 42.55898722 1.89584415 44.7313332 -2.37890625 46.15625 C-4.50055305 46.30179833 -6.62747331 46.37705412 -8.75390625 46.40625 C-9.87539063 46.43203125 -10.996875 46.4578125 -12.15234375 46.484375 C-17.04962945 45.98634595 -19.54451797 43.9707719 -23.00390625 40.59375 C-28.39963731 33.68312915 -29.30650414 24.6316992 -28.37890625 16.15625 C-26.85961476 9.33710449 -23.46900695 4.41729929 -17.81640625 0.28125 C-11.99451961 -1.62409472 -5.85179509 -2.07551353 0 0 Z " fill="#F9FAFA" transform="translate(673.37890625,710.84375)"/>
<path d="M0 0 C4.73362556 3.38116112 7.89788959 7.32846481 9.625 12.875 C10.82664445 22.65167839 10.86920659 32.79326122 4.625 40.875 C-0.83284332 46.20289467 -5.86481645 46.22572684 -13.203125 46.15234375 C-17.33266601 45.79126319 -19.40951171 44.76445013 -22.375 41.875 C-28.41671896 33.87380463 -28.13042893 25.49783142 -27.375 15.875 C-26.29407044 9.60122642 -24.41676782 5.13919122 -19.3125 1.1875 C-13.04494819 -2.39100318 -6.72434095 -2.24144698 0 0 Z " fill="#F9FBFA" transform="translate(756.375,711.125)"/>
<path d="M0 0 C0.66 0.33 1.32 0.66 2 1 C1.8604947 4.39612414 1.71227678 7.79181458 1.5625 11.1875 C1.52318359 12.14720703 1.48386719 13.10691406 1.44335938 14.09570312 C1.38051758 15.49272461 1.38051758 15.49272461 1.31640625 16.91796875 C1.27974854 17.77156982 1.24309082 18.6251709 1.20532227 19.50463867 C1 22 1 22 0 27 C-18.81 27 -37.62 27 -57 27 C-57 19.08 -57 11.16 -57 3 C-53.30425781 2.95101562 -49.60851562 2.90203125 -45.80078125 2.8515625 C-42.2197669 2.79754635 -38.63881923 2.74024125 -35.05786133 2.68261719 C-32.56995617 2.64434422 -30.08199599 2.60948843 -27.59399414 2.578125 C-24.01688988 2.53243858 -20.44016383 2.47444892 -16.86328125 2.4140625 C-15.75165115 2.40251129 -14.64002106 2.39096008 -13.4947052 2.37905884 C-11.93365303 2.3492543 -11.93365303 2.3492543 -10.34106445 2.31884766 C-8.97205742 2.29886215 -8.97205742 2.29886215 -7.57539368 2.2784729 C-4.76511457 1.97460224 -2.60898374 1.04484452 0 0 Z " fill="#FAFCFC" transform="translate(255,753)"/>
<path d="M0 0 C3.795 -0.04125 7.59 -0.0825 11.5 -0.125 C12.68013672 -0.14320801 13.86027344 -0.16141602 15.07617188 -0.18017578 C23.83572859 -0.22601411 30.88213027 0.37191696 38 6 C41.94074121 10.1952867 41.60387699 14.2666377 41.4921875 19.7890625 C40.76550748 24.52978451 38.69421655 27.07878253 35 30 C30.31758585 33.12160944 26.13906177 33.12388181 20.60546875 33.09765625 C19.52160889 33.09515869 18.43774902 33.09266113 17.32104492 33.09008789 C15.27494019 33.07643188 15.27494019 33.07643188 13.1875 33.0625 C6.6596875 33.0315625 6.6596875 33.0315625 0 33 C0 22.11 0 11.22 0 0 Z " fill="#FAFBFB" transform="translate(394,722)"/>
<path d="M0 0 C5.28 0 10.56 0 16 0 C16 23.43 16 46.86 16 71 C10.72 71 5.44 71 0 71 C0 47.57 0 24.14 0 0 Z " fill="#075B4A" transform="translate(466,698)"/>
<path d="M0 0 C4.125 -0.0825 8.25 -0.165 12.5 -0.25 C13.78455078 -0.28641602 15.06910156 -0.32283203 16.39257812 -0.36035156 C23.42348105 -0.42816674 28.07351215 0.11250619 34 4 C37.01691308 8.05397695 37.5472061 11.88899473 37.33984375 16.82421875 C36.77550301 20.43729679 35.47468809 22.3397103 33 25 C26.02860326 29.48742944 20.1356044 29.49040881 12 29.25 C8.04 29.1675 4.08 29.085 0 29 C0 19.43 0 9.86 0 0 Z " fill="#FBFCFC" transform="translate(394,680)"/>
<path d="M0 0 C1.30517578 0.02030273 1.30517578 0.02030273 2.63671875 0.04101562 C4.75808627 0.07598322 6.87912974 0.1297747 9 0.1875 C9.04582274 1.61818775 9.0784116 3.04930312 9.10546875 4.48046875 C9.12504639 5.27735107 9.14462402 6.0742334 9.16479492 6.89526367 C8.82350249 11.64251497 5.8778211 14.39746101 2.5 17.4375 C-3.30417056 21.50041939 -7.98358044 21.86415767 -15 21.1875 C-18.08631546 19.9277794 -19.38772689 19.03302001 -21.3125 16.375 C-22.24084633 13.42117076 -22.37765935 11.271718 -22 8.1875 C-19.61353447 3.91174926 -16.87013255 2.41314352 -12.32226562 0.78735352 C-8.22910785 -0.26993083 -4.19933889 -0.12578665 0 0 Z " fill="#F4F7F7" transform="translate(829,736.8125)"/>
<path d="M0 0 C4.05722471 0.86838845 5.58464041 2.22496608 8.2265625 5.4765625 C9.02000289 8.32834825 9.02157739 10.62487864 8.2265625 13.4765625 C5.7890625 16.4140625 5.7890625 16.4140625 3.2265625 18.4765625 C2.8965625 18.8065625 2.5665625 19.1365625 2.2265625 19.4765625 C-4.82153877 20.06390427 -4.82153877 20.06390427 -8.7109375 17.6640625 C-11.37878377 14.83452857 -11.7215676 12.9433916 -12.1484375 9.1015625 C-11.7734375 5.4765625 -11.7734375 5.4765625 -9.8359375 2.5390625 C-6.27128281 0.13837669 -4.21990506 -0.2681545 0 0 Z " fill="#0B5C4C" transform="translate(475.7734375,661.5234375)"/>
<path d="M0 0 C2.02781522 2.81440547 1.99526263 4.03327176 1.49609375 7.5390625 C1.16115469 8.90556039 0.80731658 10.26752574 0.4375 11.625 C0.16147949 12.68654297 0.16147949 12.68654297 -0.12011719 13.76953125 C-1.70573068 19.56322047 -3.95632718 24.81078732 -7 30 C-7.66 30 -8.32 30 -9 30 C-9.61875 28.9171875 -9.61875 28.9171875 -10.25 27.8125 C-12.35421391 24.43072764 -14.92210358 22.50079084 -18 20 C-21 16.5 -21 16.5 -21 14 C-20.41992188 13.82984375 -19.83984375 13.6596875 -19.2421875 13.484375 C-10.72272578 10.84137367 -5.50233997 6.94621642 0 0 Z " fill="#07B986" transform="translate(330,766)"/>
<path d="M0 0 C0.66 0 1.32 0 2 0 C2.08825361 3.47900249 2.14080635 6.95771117 2.1875 10.4375 C2.21263672 11.41138672 2.23777344 12.38527344 2.26367188 13.38867188 C2.32497315 19.49836528 2.09062262 25.55759048 -1 31 C-1.99 31.33 -2.98 31.66 -4 32 C-4.33 32.99 -4.66 33.98 -5 35 C-5.804375 35.474375 -6.60875 35.94875 -7.4375 36.4375 C-10.41267827 37.94063021 -10.41267827 37.94063021 -12 42 C-26.19 41.67 -40.38 41.34 -55 41 C-55 40.67 -55 40.34 -55 40 C-53.794646 40.02731201 -52.58929199 40.05462402 -51.34741211 40.08276367 C-46.85362014 40.16993012 -42.36198141 40.18419081 -37.86743164 40.17700195 C-35.92650534 40.18395636 -33.98554339 40.21040096 -32.04516602 40.25708008 C-20.90685961 40.9536082 -20.90685961 40.9536082 -11.21069336 36.63598633 C-9.38543325 33.79576846 -8.14599016 31.16777769 -7 28 C-6.23872595 26.43282034 -5.46975377 24.86931383 -4.6875 23.3125 C-1.51962504 15.66357113 -0.57491231 8.23032355 0 0 Z " fill="#05AC59" transform="translate(317,661)"/>
<path d="M0 0 C0.66 0.33 1.32 0.66 2 1 C-2.16576336 7.07011233 -6.96271867 12.08708708 -12.19262695 17.22387695 C-15.61476233 20.59153057 -18.82479719 24.02970782 -21.9140625 27.70703125 C-23.76697668 29.7438489 -25.67355221 31.65718563 -27.6484375 33.57421875 C-28.31955566 34.2285791 -28.99067383 34.88293945 -29.68212891 35.55712891 C-31.03245398 36.86664133 -32.39119566 38.16754563 -33.75927734 39.45849609 C-37.80871166 43.39214368 -40.15395291 46.6478411 -42 52 C-42.33 52 -42.66 52 -43 52 C-43.48995426 49.00480792 -43.56607355 46.85707299 -41.85449219 44.265625 C-40.09562595 42.26666645 -38.26129729 40.37934009 -36.375 38.5 C-35.67656982 37.78021973 -34.97813965 37.06043945 -34.25854492 36.31884766 C-29.95912192 31.91188089 -25.58031067 27.58356859 -21.21484375 23.2421875 C-20.72550354 22.75490173 -20.23616333 22.26761597 -19.73199463 21.76556396 C-17.31466075 19.35958328 -14.89122109 16.96062154 -12.45263672 14.57617188 C-7.77940718 9.96599184 -3.58418211 5.50832197 0 0 Z " fill="#0B6450" transform="translate(300,705)"/>
<path d="M0 0 C0.66 0 1.32 0 2 0 C0.68925635 4.46182436 -1.07066011 7.99618757 -3.625 11.875 C-4.57246094 13.32519531 -4.57246094 13.32519531 -5.5390625 14.8046875 C-6.02117187 15.52914062 -6.50328125 16.25359375 -7 17 C-8.5 15.6875 -8.5 15.6875 -10 14 C-10 13.01 -10 12.02 -10 11 C-9.34 11 -8.68 11 -8 11 C-7.71125 10.21625 -7.4225 9.4325 -7.125 8.625 C-6 6 -6 6 -4 4 C-3.01 4 -2.02 4 -1 4 C-0.67 2.68 -0.34 1.36 0 0 Z " fill="#09C169" transform="translate(313,692)"/>
<path d="M0 0 C0 3 0 3 -3 8 C-17.19 7.67 -31.38 7.34 -46 7 C-46 6.67 -46 6.34 -46 6 C-44.17625854 5.99383667 -44.17625854 5.99383667 -42.31567383 5.98754883 C-37.7958767 5.9657433 -33.27694837 5.91143887 -28.75756836 5.84741211 C-26.80322611 5.82424449 -24.84875923 5.80983929 -22.89428711 5.80444336 C-20.08107957 5.79514468 -17.26982888 5.75413525 -14.45703125 5.70703125 C-13.58601273 5.7109639 -12.7149942 5.71489655 -11.81758118 5.71894836 C-7.6314128 5.61872655 -4.96709114 5.49254439 -1.90893555 2.45581055 C-1.27898682 1.64539307 -0.64903809 0.83497559 0 0 Z " fill="#01A159" transform="translate(308,695)"/>
<path d="M0 0 C0.66 0 1.32 0 2 0 C2 7.26 2 14.52 2 22 C1.67 20.68 1.34 19.36 1 18 C0.01 18.33 -0.98 18.66 -2 19 C-1.34 12.73 -0.68 6.46 0 0 Z " fill="#0DB161" transform="translate(317,661)"/>
<path d="M0 0 C1.10546875 1.5078125 1.10546875 1.5078125 2 4 C1.57174974 6.7442976 1.04671782 9.21620457 0.3125 11.875 C0.13783203 12.56980469 -0.03683594 13.26460937 -0.21679688 13.98046875 C-1.34792408 18.28604973 -2.86132188 22.06779066 -5 26 C-6.34758895 21.95723314 -5.17326293 20.30125793 -3.625 16.375 C-1.52347528 10.86484365 -0.30507515 5.89811956 0 0 Z " fill="#0FA47C" transform="translate(330,766)"/>
<path d="M0 0 C0.66 0 1.32 0 2 0 C0.68775452 3.93673644 -0.91910327 6.22719294 -4 9 C-6 6 -6 6 -6 3 C-4.02 2.67 -2.04 2.34 0 2 C0 1.34 0 0.68 0 0 Z " fill="#21DB7E" transform="translate(309,700)"/>
<path d="M0 0 C-0.66 3.63 -1.32 7.26 -2 11 C-0.68 11.33 0.64 11.66 2 12 C0.0625 12.5625 0.0625 12.5625 -2 13 C-3.73956658 11.26043342 -3.37190386 8.8063378 -3.5625 6.4375 C-3.64628906 5.42558594 -3.73007812 4.41367187 -3.81640625 3.37109375 C-3.87699219 2.58863281 -3.93757812 1.80617188 -4 1 C-2 0 -2 0 0 0 Z " fill="#408075" transform="translate(801,702)"/>
<path d="M0 0 C0.66 0 1.32 0 2 0 C0.34908222 4.29238623 -2.73754566 6.8793915 -6 10 C-6.66 9.67 -7.32 9.34 -8 9 C-6.71520959 7.49410612 -5.42195918 5.99542625 -4.125 4.5 C-3.04605469 3.24703125 -3.04605469 3.24703125 -1.9453125 1.96875 C-1.30335938 1.3190625 -0.66140625 0.669375 0 0 Z " fill="#1E6759" transform="translate(609,699)"/>
<path d="M0 0 C0.99 0.33 1.98 0.66 3 1 C1.35 2.32 -0.3 3.64 -2 5 C-1.125 1.125 -1.125 1.125 0 0 Z " fill="#16695C" transform="translate(273,734)"/>
<path d="M0 0 C2.29013653 3.4352048 2.17842973 4.985331 2 9 C1.34 9 0.68 9 0 9 C-1.125 2.25 -1.125 2.25 0 0 Z " fill="#42D186" transform="translate(317,652)"/>
<path d="M0 0 C0.66 0.33 1.32 0.66 2 1 C0.02 3.31 -1.96 5.62 -4 8 C-4.66 7.67 -5.32 7.34 -6 7 C-4.02 4.69 -2.04 2.38 0 0 Z " fill="#56D793" transform="translate(141,611)"/>
</svg>
