<?xml version="1.0" encoding="UTF-8"?>
<svg version="1.1" xmlns="http://www.w3.org/2000/svg" width="408" height="612">
<path d="M0 0 C0.97483841 -0.00607773 1.94967682 -0.01215546 2.95405579 -0.01841736 C4.51823494 0.01088112 4.51823494 0.01088112 6.11401367 0.04077148 C7.19776779 0.04310287 8.28152191 0.04543427 9.39811707 0.0478363 C11.68866859 0.05756887 13.9791962 0.07934444 16.26953125 0.11230469 C19.75907424 0.161542 23.24720211 0.1737776 26.73706055 0.17944336 C28.96689311 0.19353739 31.19671353 0.20974467 33.42651367 0.22827148 C34.46322708 0.23363419 35.49994049 0.23899689 36.56806946 0.24452209 C45.41454921 0.38821092 53.34588854 1.23425307 59.96948242 7.59936523 C64.98588149 13.67743606 67.50862988 20.76150671 66.78198242 28.66186523 C66.08767958 32.87001782 64.58545696 36.66481854 62.96948242 40.59936523 C63.71198242 41.36249023 64.45448242 42.12561523 65.21948242 42.91186523 C69.80027341 48.43230565 72.80806064 56.26948882 72.34838867 63.50561523 C70.51301526 73.64747244 65.97271934 80.63846934 57.96948242 86.97436523 C50.66702572 90.92986262 43.76757791 90.93184983 35.61401367 90.97045898 C34.43481857 90.97948746 33.25562347 90.98851593 32.04069519 90.99781799 C29.55710375 91.01228192 27.07347454 91.0211976 24.58984375 91.02490234 C20.78410613 91.03685856 16.97995933 91.0861354 13.17456055 91.13647461 C10.75855282 91.14593259 8.34253517 91.15317061 5.92651367 91.15795898 C4.78793411 91.1774913 3.64935455 91.19702362 2.47627258 91.21714783 C1.41804794 91.2110701 0.3598233 91.20499237 -0.73046875 91.19873047 C-2.12443123 91.20633644 -2.12443123 91.20633644 -3.54655457 91.21409607 C-6.03051758 90.59936523 -6.03051758 90.59936523 -8.32843018 88.55140686 C-10.43784498 84.89291066 -10.60109394 81.87645889 -10.56396484 77.76733398 C-10.57258041 76.99434967 -10.58119598 76.22136536 -10.59007263 75.42495728 C-10.61271198 72.87858266 -10.60599842 70.33331031 -10.59692383 67.78686523 C-10.60216005 66.01236647 -10.60843653 64.2378705 -10.6157074 62.46337891 C-10.62610759 58.74783208 -10.62155528 55.03266833 -10.60693359 51.31713867 C-10.58973921 46.55867051 -10.61325047 41.80140909 -10.64842319 37.04307556 C-10.67039558 33.37984231 -10.66895628 29.71689795 -10.66065788 26.05361938 C-10.6598384 24.2993538 -10.66670118 22.54506699 -10.68142891 20.79086304 C-10.69887442 18.33695513 -10.68433544 15.88521754 -10.66162109 13.43139648 C-10.67331329 12.70916901 -10.68500549 11.98694153 -10.697052 11.24282837 C-10.62585619 7.45752273 -10.10692401 5.70073658 -7.80548096 2.64732361 C-4.82654858 0.44883351 -3.63178766 -0.02158882 0 0 Z M16.96948242 24.59936523 C16.96948242 28.88936523 16.96948242 33.17936523 16.96948242 37.59936523 C20.42786714 37.62624387 23.88604467 37.64614506 27.34448242 37.66186523 C28.32932617 37.67024414 29.31416992 37.67862305 30.32885742 37.68725586 C31.26987305 37.69047852 32.21088867 37.69370117 33.18041992 37.69702148 C34.04973145 37.7022583 34.91904297 37.70749512 35.81469727 37.71289062 C38.01998236 37.74058875 38.01998236 37.74058875 39.96948242 36.59936523 C41.03297771 31.02354114 41.03297771 31.02354114 39.96948242 25.59936523 C37.08683093 24.6384814 35.29285971 24.48265582 32.30151367 24.50170898 C31.40883789 24.50493164 30.51616211 24.5081543 29.59643555 24.51147461 C28.66766602 24.51985352 27.73889648 24.52823242 26.78198242 24.53686523 C25.37142578 24.54363281 25.37142578 24.54363281 23.93237305 24.55053711 C21.61138234 24.56231879 19.29042435 24.58025409 16.96948242 24.59936523 Z M16.96948242 60.59936523 C16.96948242 63.23936523 16.96948242 65.87936523 16.96948242 68.59936523 C24.22948242 68.59936523 31.48948242 68.59936523 38.96948242 68.59936523 C38.96948242 65.95936523 38.96948242 63.31936523 38.96948242 60.59936523 C31.70948242 60.59936523 24.44948242 60.59936523 16.96948242 60.59936523 Z " fill="#21AB7E" transform="translate(62.030517578125,241.400634765625)"/>
<path d="M0 0 C3.47211352 1.73605676 3.95941837 5.57882734 5.1640625 9.09765625 C7.44865177 17.0296648 5.63804244 23.6705714 2 31 C-2.97288158 38.21248442 -9.23349037 43.38688792 -18 45 C-22.13077128 45.2964545 -26.25046692 45.30410392 -30.390625 45.30078125 C-31.57219177 45.30506638 -32.75375854 45.3093515 -33.97113037 45.31376648 C-36.45893718 45.31949207 -38.94676072 45.32002315 -41.43457031 45.31567383 C-45.25093757 45.31249922 -49.06654015 45.33604667 -52.8828125 45.36132812 C-55.30208235 45.36359973 -57.7213543 45.36430526 -60.140625 45.36328125 C-61.28436584 45.372491 -62.42810669 45.38170074 -63.60650635 45.39118958 C-64.66480652 45.38496078 -65.72310669 45.37873199 -66.81347656 45.37231445 C-67.74500549 45.37294388 -68.67653442 45.3735733 -69.6362915 45.3742218 C-72 45 -72 45 -73.8028717 43.65866089 C-75.6825041 41.05436797 -75.33592072 38.74616007 -75.29296875 35.58203125 C-75.28330078 34.32841797 -75.27363281 33.07480469 -75.26367188 31.78320312 C-75.23853516 30.47287109 -75.21339844 29.16253906 -75.1875 27.8125 C-75.17244967 26.47722837 -75.15876187 25.14194063 -75.14648438 23.80664062 C-75.11107947 20.53758748 -75.05727194 17.26874317 -75 14 C-66.42 14 -57.84 14 -49 14 C-48.67 17.3 -48.34 20.6 -48 24 C-41.70096333 23.73820701 -35.40215813 23.47155075 -29.10351562 23.20043945 C-26.96197043 23.10894119 -24.8203686 23.01875841 -22.67871094 22.92993164 C-19.59554366 22.80182418 -16.51261284 22.668945 -13.4296875 22.53515625 C-12.47633514 22.49656998 -11.52298279 22.4579837 -10.54074097 22.41822815 C-5.95045536 22.21449781 -1.51971501 21.89802198 3 21 C3 20.01 3 19.02 3 18 C2.34 18 1.68 18 1 18 C0.30739642 11.96445452 -0.11251733 6.07593562 0 0 Z " fill="#099F7F" transform="translate(128,287)"/>
<path d="M0 0 C0.97483841 -0.00607773 1.94967682 -0.01215546 2.95405579 -0.01841736 C4.51823494 0.01088112 4.51823494 0.01088112 6.11401367 0.04077148 C7.19776779 0.04310287 8.28152191 0.04543427 9.39811707 0.0478363 C11.68866859 0.05756887 13.9791962 0.07934444 16.26953125 0.11230469 C19.75907424 0.161542 23.24720211 0.1737776 26.73706055 0.17944336 C28.96689311 0.19353739 31.19671353 0.20974467 33.42651367 0.22827148 C34.46322708 0.23363419 35.49994049 0.23899689 36.56806946 0.24452209 C45.41454921 0.38821092 53.34588854 1.23425307 59.96948242 7.59936523 C64.57667271 13.18162225 67.20013979 19.64846964 66.86010742 26.94702148 C66.63298629 28.84081094 66.31068137 30.72277103 65.96948242 32.59936523 C65.63948242 32.59936523 65.30948242 32.59936523 64.96948242 32.59936523 C64.94370117 31.90069336 64.91791992 31.20202148 64.89135742 30.48217773 C64.83463867 29.57209961 64.77791992 28.66202148 64.71948242 27.72436523 C64.67307617 26.81944336 64.62666992 25.91452148 64.57885742 24.98217773 C64.21337094 22.4282598 64.21337094 22.4282598 61.92260742 21.27905273 C61.27807617 21.05475586 60.63354492 20.83045898 59.96948242 20.59936523 C59.96948242 19.60936523 59.96948242 18.61936523 59.96948242 17.59936523 C59.30948242 17.59936523 58.64948242 17.59936523 57.96948242 17.59936523 C58.19635742 17.04249023 58.42323242 16.48561523 58.65698242 15.91186523 C59.19224859 13.46982187 59.19224859 13.46982187 57.78198242 10.91186523 C56.18993912 8.49672445 56.18993912 8.49672445 53.90698242 7.72436523 C51.88700353 7.43065842 51.88700353 7.43065842 49.96948242 8.59936523 C49.47448242 7.11436523 49.47448242 7.11436523 48.96948242 5.59936523 C48.30948242 5.59936523 47.64948242 5.59936523 46.96948242 5.59936523 C46.96948242 4.93936523 46.96948242 4.27936523 46.96948242 3.59936523 C45.97948242 3.92936523 44.98948242 4.25936523 43.96948242 4.59936523 C42.08666992 4.29467773 42.08666992 4.29467773 39.84448242 3.72436523 C32.2972008 2.06216631 24.67062539 1.96608633 16.96948242 1.59936523 C16.96948242 8.85936523 16.96948242 16.11936523 16.96948242 23.59936523 C23.74552382 23.55986709 23.74552382 23.55986709 30.52148438 23.50927734 C31.78931763 23.50553101 31.78931763 23.50553101 33.08276367 23.50170898 C33.94683838 23.49647217 34.81091309 23.49123535 35.70117188 23.48583984 C37.96948242 23.59936523 37.96948242 23.59936523 40.96948242 24.59936523 C40.96948242 25.25936523 40.96948242 25.91936523 40.96948242 26.59936523 C41.62948242 26.59936523 42.28948242 26.59936523 42.96948242 26.59936523 C42.96948242 29.56936523 42.96948242 32.53936523 42.96948242 35.59936523 C41.97948242 35.59936523 40.98948242 35.59936523 39.96948242 35.59936523 C39.96948242 32.29936523 39.96948242 28.99936523 39.96948242 25.59936523 C32.37948242 25.59936523 24.78948242 25.59936523 16.96948242 25.59936523 C16.63948242 29.88936523 16.30948242 34.17936523 15.96948242 38.59936523 C8.37948242 38.59936523 0.78948242 38.59936523 -7.03051758 38.59936523 C-7.03051758 33.97936523 -7.03051758 29.35936523 -7.03051758 24.59936523 C-7.75928601 32.57691574 -8.21440169 40.48212336 -8.34692383 48.48999023 C-8.36770493 49.56061707 -8.38848602 50.6312439 -8.40989685 51.73431396 C-8.47452716 55.10594165 -8.53386869 58.4776374 -8.59301758 61.84936523 C-8.63628539 64.15536145 -8.67990209 66.46135114 -8.72387695 68.76733398 C-8.8301178 74.37794215 -8.93203358 79.98861583 -9.03051758 85.59936523 C-9.36051758 85.59936523 -9.69051758 85.59936523 -10.03051758 85.59936523 C-10.1463965 75.25513492 -10.23522538 64.91105915 -10.28957844 54.56631184 C-10.31566612 49.76272459 -10.35104891 44.95958157 -10.40771484 40.15625 C-10.4620644 35.52022629 -10.49194435 30.88462971 -10.50490379 26.248312 C-10.51413842 24.48003605 -10.53217187 22.71178333 -10.55916786 20.94368935 C-10.59549869 18.46552758 -10.60046145 15.98912767 -10.59814453 13.51074219 C-10.61612091 12.78065948 -10.63409729 12.05057678 -10.65261841 11.29837036 C-10.61408404 7.48600896 -10.12236739 5.72164865 -7.80944824 2.6423645 C-4.82870206 0.45099559 -3.62936825 -0.02157443 0 0 Z " fill="#2CBE81" transform="translate(62.030517578125,241.400634765625)"/>
<path d="M0 0 C27.01099644 -0.43920319 27.01099644 -0.43920319 34 5 C34.99 5 35.98 5 37 5 C39.1875 6.3125 39.1875 6.3125 41 8 C41 8.99 41 9.98 41 11 C41.66 11.33 42.32 11.66 43 12 C42.34 13.32 41.68 14.64 41 16 C41.66 16 42.32 16 43 16 C43 16.99 43 17.98 43 19 C44.32 19 45.64 19 47 19 C48.87403766 25.09062241 46.7191876 28.56162479 44 34 C40.37 34 36.74 34 33 34 C33 33.01 33 32.02 33 31 C32.34 31 31.68 31 31 31 C31 31.99 31 32.98 31 34 C29.35 34 27.7 34 26 34 C26 31.03 26 28.06 26 25 C25.34 25 24.68 25 24 25 C24 24.34 24 23.68 24 23 C16.08 22.67 8.16 22.34 0 22 C0 14.74 0 7.48 0 0 Z " fill="#28C973" transform="translate(79,243)"/>
<path d="M0 0 C20 0 20 0 28 3 C30.57944356 6.43925808 31.02558215 8.27090877 30.875 12.5625 C30.02604597 15.89767656 28.95681844 18.19239093 27 21 C27.825 21.61875 28.65 22.2375 29.5 22.875 C32.06573905 25.43342925 32.43937421 27.41329227 32.5625 31 C32.37399022 34.33364661 32.00768814 35.98523877 30.4375 39 C22.18212866 45.77363803 9.45003212 43 0 43 C0 28.81 0 14.62 0 0 Z M8 7 C8 10.63 8 14.26 8 18 C14.7152761 18.6141018 14.7152761 18.6141018 20.6875 16.25 C22.16013548 14.13687939 22.16013548 14.13687939 22.0625 11.9375 C20.48813064 9.06659116 19.01295202 8.28210724 16 7 C13.27735363 6.76302893 10.74266695 6.86054236 8 7 Z M8 25 C7.97311849 26.64574566 7.95365877 28.29161413 7.9375 29.9375 C7.92589844 30.85402344 7.91429687 31.77054687 7.90234375 32.71484375 C7.74050951 34.96593327 7.74050951 34.96593327 9 36 C10.60048202 36.12535652 12.20715928 36.17574787 13.8125 36.1875 C14.68519531 36.20167969 15.55789062 36.21585937 16.45703125 36.23046875 C19.10919085 35.99010406 20.72464999 35.34187309 23 34 C23.25015873 30.58357241 23.25015873 30.58357241 23 27 C19.47320901 24.64880601 17.97120515 24.78556548 13.8125 24.875 C12.72582031 24.89304687 11.63914063 24.91109375 10.51953125 24.9296875 C9.68808594 24.95289063 8.85664063 24.97609375 8 25 Z " fill="#055445" transform="translate(149,264)"/>
<path d="M0 0 C8.58 0 17.16 0 26 0 C26.14274572 3.95099755 26.28527574 7.90200194 26.42724609 11.85302734 C26.4994264 13.85905842 26.57197734 15.86507615 26.64453125 17.87109375 C26.68964844 19.12792969 26.73476562 20.38476562 26.78125 21.6796875 C26.82314453 22.84226074 26.86503906 24.00483398 26.90820312 25.20263672 C26.96066045 26.80119006 27 28.40058618 27 30 C35.58 30 44.16 30 53 30 C53 30.33 53 30.66 53 31 C45.93423331 31.07595253 38.86857156 31.12855861 31.80249023 31.16479492 C29.39782782 31.17989816 26.99319302 31.20038208 24.58862305 31.22631836 C21.13583569 31.26263351 17.68341196 31.279711 14.23046875 31.29296875 C12.61316109 31.31619453 12.61316109 31.31619453 10.96318054 31.33988953 C9.96236954 31.34011612 8.96155853 31.34034271 7.93041992 31.34057617 C7.04883713 31.34723801 6.16725433 31.35389984 5.25895691 31.36076355 C2.50960331 30.92168188 1.62794761 30.22847648 0 28 C-0.34057617 25.08911133 -0.34057617 25.08911133 -0.29296875 21.58203125 C-0.28330078 20.32841797 -0.27363281 19.07480469 -0.26367188 17.78320312 C-0.23853516 16.47287109 -0.21339844 15.16253906 -0.1875 13.8125 C-0.17244967 12.47722837 -0.15876187 11.14194063 -0.14648438 9.80664062 C-0.11107947 6.53758748 -0.05727194 3.26874317 0 0 Z " fill="#03584A" transform="translate(53,301)"/>
<path d="M0 0 C4.46542751 2.97695168 5.80392576 7.96661979 7.25 12.9375 C7.25 18.32208443 5.28764561 23.00504188 1.875 27.18359375 C-1.18704364 29.66414352 -4.89786388 30.16254014 -8.75 30.5 C-11.30551485 30.11364712 -13.31666614 29.43191509 -15.75 28.5 C-15.75 32.79 -15.75 37.08 -15.75 41.5 C-18.39 41.5 -21.03 41.5 -23.75 41.5 C-23.75 27.97 -23.75 14.44 -23.75 0.5 C-20.41666667 0.5 -17.08333333 0.5 -13.75 0.5 C-9.13595777 -1.03801408 -4.72410138 -0.85892752 0 0 Z M-14.125 8.5 C-16.37175128 12.64784852 -16.34566305 14.80915346 -15.75 19.5 C-14.37283334 22.21107713 -14.37283334 22.21107713 -11.75 23.5 C-8.14969811 23.8309316 -8.14969811 23.8309316 -4.75 22.5 C-2.13997988 19.0743486 -1.72920332 17.1135021 -1.875 12.8125 C-2.81334689 8.87938477 -2.81334689 8.87938477 -5.75 6.5 C-9.61784813 5.84164287 -11.09265035 5.9464424 -14.125 8.5 Z " fill="#1F6457" transform="translate(306.75,277.5)"/>
<path d="M0 0 C2.33294775 -0.04241723 4.66702567 -0.04092937 7 0 C8.65079442 1.65079442 8.22549447 3.63736179 8.31640625 5.91015625 C8.37924805 7.39418945 8.37924805 7.39418945 8.44335938 8.90820312 C8.48267578 9.94912109 8.52199219 10.99003906 8.5625 12.0625 C8.60568359 13.10728516 8.64886719 14.15207031 8.69335938 15.22851562 C8.79981225 17.81886884 8.9018276 20.40932186 9 23 C9.442229 22.42830078 9.88445801 21.85660156 10.34008789 21.26757812 C15.28205128 15.1953602 15.28205128 15.1953602 18.87109375 14.21875 C20.14146484 14.35796875 20.14146484 14.35796875 21.4375 14.5 C22.30246094 14.5721875 23.16742188 14.644375 24.05859375 14.71875 C24.69925781 14.8115625 25.33992188 14.904375 26 15 C24.48446596 18.47775179 22.4226544 20.9557984 19.875 23.75 C19.15054688 24.54921875 18.42609375 25.3484375 17.6796875 26.171875 C17.12539062 26.77515625 16.57109375 27.3784375 16 28 C18.86407944 31.87782577 21.72225432 35.72540329 24.875 39.375 C27 42 27 42 27 44 C19.00746269 44.78358209 19.00746269 44.78358209 15.1875 41.8125 C14.465625 40.884375 13.74375 39.95625 13 39 C12.236875 38.071875 11.47375 37.14375 10.6875 36.1875 C10.130625 35.465625 9.57375 34.74375 9 34 C8.67 37.3 8.34 40.6 8 44 C5.36 44 2.72 44 0 44 C-0.80225837 41.19711611 -1.10461725 38.78433888 -1.02172852 35.87402344 C-1.00163223 35.07349548 -0.98153595 34.27296753 -0.96083069 33.44818115 C-0.93379562 32.59387512 -0.90676056 31.73956909 -0.87890625 30.859375 C-0.85529526 29.97719299 -0.83168427 29.09501099 -0.80735779 28.18609619 C-0.73090504 25.37389292 -0.64680169 22.56197786 -0.5625 19.75 C-0.5092609 17.84115984 -0.45652063 15.9323057 -0.40429688 14.0234375 C-0.27531479 9.3487765 -0.13947175 4.67435932 0 0 Z " fill="#1C6155" transform="translate(225,263)"/>
<path d="M0 0 C3.54419028 3.79734673 4.12538663 7.45099045 4.1328125 12.51171875 C4.13474609 13.77145508 4.13474609 13.77145508 4.13671875 15.05664062 C4.13285156 15.92482422 4.12898438 16.79300781 4.125 17.6875 C4.13080078 19.00717773 4.13080078 19.00717773 4.13671875 20.35351562 C4.13542969 21.18947266 4.13414062 22.02542969 4.1328125 22.88671875 C4.13168457 23.65201904 4.13055664 24.41731934 4.12939453 25.20581055 C4 27 4 27 3 28 C0.32459751 28.04385906 -2.3267852 28.04463624 -5 28 C-8.83495211 27.84169794 -8.83495211 27.84169794 -11.8125 28.6875 C-15.99049609 29.09710746 -18.3410519 27.97020282 -22 26 C-24.4915904 22.2626144 -24.45793285 20.42668417 -24 16 C-22.26387088 13.04215039 -21.10556609 11.42271645 -17.875 10.1875 C-13.58123755 9.90747201 -9.30087185 9.92483913 -5 10 C-5.66 8.68 -6.32 7.36 -7 6 C-8.41655793 5.9727585 -9.83327045 5.95349533 -11.25 5.9375 C-12.03890625 5.92589844 -12.8278125 5.91429687 -13.640625 5.90234375 C-16.00234701 5.91917899 -16.00234701 5.91917899 -18.234375 6.56640625 C-18.81703125 6.70949219 -19.3996875 6.85257812 -20 7 C-21 6 -21 6 -21.0625 2.9375 C-21.041875 1.968125 -21.02125 0.99875 -21 0 C-14.24677889 -2.29896889 -6.48733401 -3.81607883 0 0 Z M-16 18 C-15.34 19.32 -14.68 20.64 -14 22 C-8.98464948 21.67039784 -8.98464948 21.67039784 -5 19 C-5 18.01 -5 17.02 -5 16 C-6.8871875 15.938125 -6.8871875 15.938125 -8.8125 15.875 C-9.52019531 15.85179687 -10.22789062 15.82859375 -10.95703125 15.8046875 C-13.31359719 15.86745538 -13.31359719 15.86745538 -16 18 Z " fill="#2F6C61" transform="translate(338,279)"/>
<path d="M0 0 C0 0.66 0 1.32 0 2 C0.99 2.33 1.98 2.66 3 3 C5.79130293 7.5542311 5.40836839 12.8443491 5 18 C3.94595862 22.04049197 2.29118309 24.42042406 -1 27 C-6.47844422 29.21244863 -10.34684812 29.1853383 -16 28 C-19.15598525 26.45707388 -21.79479236 24.75650955 -24 22 C-25.70759371 16.60635917 -25.6195496 10.59084377 -24.3125 5.125 C-22.30479673 1.8744328 -19.79797816 -0.43045412 -16.11328125 -1.59765625 C-10.56337164 -2.65429338 -5.08996887 -2.62708071 0 0 Z M-14.8125 6.0625 C-16.62043217 9.01228407 -16.82270308 11.57225952 -17 15 C-15.9648201 18.88192461 -15.41625138 19.72249908 -12 22 C-7.49149818 21.65554402 -7.49149818 21.65554402 -4 19 C-3.02404666 14.03890386 -2.38118419 10.54846957 -5 6 C-8.25426235 4.37286883 -11.62860505 4.19607882 -14.8125 6.0625 Z " fill="#246A5E" transform="translate(275,279)"/>
<path d="M0 0 C0.66 0 1.32 0 2 0 C1.67 1.65 1.34 3.3 1 5 C2.65 5 4.3 5 6 5 C6 5.66 6 6.32 6 7 C6.99 6.67 7.98 6.34 9 6 C9.69260358 12.03554548 10.11251733 17.92406438 10 24 C10.99 23.67 11.98 23.34 13 23 C13 24.98 13 26.96 13 29 C12.67 28.34 12.34 27.68 12 27 C11.25492188 27.31710937 10.50984375 27.63421875 9.7421875 27.9609375 C4.5479309 29.40318411 -0.50701005 29.4663402 -5.875 29.625 C-7.47988281 29.68300781 -7.47988281 29.68300781 -9.1171875 29.7421875 C-11.74462408 29.83602452 -14.37206171 29.92171557 -17 30 C-17.03043401 28.38943993 -17.0522223 26.77871477 -17.0703125 25.16796875 C-17.08336426 24.27102295 -17.09641602 23.37407715 -17.10986328 22.44995117 C-16.77903384 15.07245462 -8.22615166 7.79063903 -3 3 C-2.34 3 -1.68 3 -1 3 C-0.67 2.01 -0.34 1.02 0 0 Z " fill="#2B8871" transform="translate(119,281)"/>
<path d="M0 0 C7.92 0 15.84 0 24 0 C24 6.48246119 23.6806753 7.12114165 19.6875 11.6875 C18.88699219 12.61949219 18.08648437 13.55148437 17.26171875 14.51171875 C15.54893372 16.3960781 13.82906253 18.23013043 12 20 C12.33 20.66 12.66 21.32 13 22 C13.78246094 21.98839844 14.56492188 21.97679687 15.37109375 21.96484375 C16.38300781 21.95582031 17.39492187 21.94679688 18.4375 21.9375 C19.44683594 21.92589844 20.45617187 21.91429687 21.49609375 21.90234375 C24 22 24 22 25 23 C25 24.98 25 26.96 25 29 C16.42 29 7.84 29 -1 29 C-1 23 -1 23 1 20 C1.66 20 2.32 20 3 20 C3.061875 19.443125 3.12375 18.88625 3.1875 18.3125 C4.3364741 15.04234294 6.51198688 13.36953631 9 11 C9.99 9.68 10.98 8.36 12 7 C8.04 6.67 4.08 6.34 0 6 C0 4.02 0 2.04 0 0 Z " fill="#226458" transform="translate(197,278)"/>
<path d="M0 0 C0.97483841 -0.00607773 1.94967682 -0.01215546 2.95405579 -0.01841736 C4.51823494 0.01088112 4.51823494 0.01088112 6.11401367 0.04077148 C7.19776779 0.04310287 8.28152191 0.04543427 9.39811707 0.0478363 C11.68866859 0.05756887 13.9791962 0.07934444 16.26953125 0.11230469 C19.75907424 0.161542 23.24720211 0.1737776 26.73706055 0.17944336 C28.96689311 0.19353739 31.19671353 0.20974467 33.42651367 0.22827148 C34.46322708 0.23363419 35.49994049 0.23899689 36.56806946 0.24452209 C45.41454921 0.38821092 53.34588854 1.23425307 59.96948242 7.59936523 C64.57667271 13.18162225 67.20013979 19.64846964 66.86010742 26.94702148 C66.63298629 28.84081094 66.31068137 30.72277103 65.96948242 32.59936523 C65.63948242 32.59936523 65.30948242 32.59936523 64.96948242 32.59936523 C64.94370117 31.90069336 64.91791992 31.20202148 64.89135742 30.48217773 C64.83463867 29.57209961 64.77791992 28.66202148 64.71948242 27.72436523 C64.67307617 26.81944336 64.62666992 25.91452148 64.57885742 24.98217773 C64.21337094 22.4282598 64.21337094 22.4282598 61.92260742 21.27905273 C61.27807617 21.05475586 60.63354492 20.83045898 59.96948242 20.59936523 C59.96948242 19.60936523 59.96948242 18.61936523 59.96948242 17.59936523 C59.30948242 17.59936523 58.64948242 17.59936523 57.96948242 17.59936523 C58.19635742 17.04249023 58.42323242 16.48561523 58.65698242 15.91186523 C59.19224859 13.46982187 59.19224859 13.46982187 57.78198242 10.91186523 C56.18993912 8.49672445 56.18993912 8.49672445 53.90698242 7.72436523 C51.88700353 7.43065842 51.88700353 7.43065842 49.96948242 8.59936523 C49.47448242 7.11436523 49.47448242 7.11436523 48.96948242 5.59936523 C48.30948242 5.59936523 47.64948242 5.59936523 46.96948242 5.59936523 C46.96948242 4.93936523 46.96948242 4.27936523 46.96948242 3.59936523 C45.97948242 3.92936523 44.98948242 4.25936523 43.96948242 4.59936523 C41.98120117 4.26611328 41.98120117 4.26611328 39.65698242 3.67358398 C33.09299473 2.25765848 26.65873015 2.34397223 19.96948242 2.41186523 C18.76291992 2.41250977 17.55635742 2.4131543 16.31323242 2.41381836 C9.47415771 2.44727036 2.75720294 2.74992268 -4.03051758 3.59936523 C-4.36051758 4.58936523 -4.69051758 5.57936523 -5.03051758 6.59936523 C-6.02051758 7.09436523 -6.02051758 7.09436523 -7.03051758 7.59936523 C-8.18818666 11.07237249 -8.20571314 14.21021471 -8.23583984 17.82470703 C-8.24573944 18.5566629 -8.25563904 19.28861877 -8.26583862 20.04275513 C-8.29741769 22.46133188 -8.32219681 24.87992827 -8.34692383 27.29858398 C-8.36749646 28.97582 -8.38849302 30.65305087 -8.40989685 32.33027649 C-8.46508559 36.74431182 -8.51450897 41.1583937 -8.56274414 45.57250977 C-8.61298251 50.07694642 -8.66865638 54.58131551 -8.72387695 59.08569336 C-8.83141941 67.92352626 -8.93287309 76.76141783 -9.03051758 85.59936523 C-9.36051758 85.59936523 -9.69051758 85.59936523 -10.03051758 85.59936523 C-10.1463965 75.25513492 -10.23522538 64.91105915 -10.28957844 54.56631184 C-10.31566612 49.76272459 -10.35104891 44.95958157 -10.40771484 40.15625 C-10.4620644 35.52022629 -10.49194435 30.88462971 -10.50490379 26.248312 C-10.51413842 24.48003605 -10.53217187 22.71178333 -10.55916786 20.94368935 C-10.59549869 18.46552758 -10.60046145 15.98912767 -10.59814453 13.51074219 C-10.61612091 12.78065948 -10.63409729 12.05057678 -10.65261841 11.29837036 C-10.61408404 7.48600896 -10.12236739 5.72164865 -7.80944824 2.6423645 C-4.82870206 0.45099559 -3.62936825 -0.02157443 0 0 Z " fill="#8AD0B4" transform="translate(62.030517578125,241.400634765625)"/>
<path d="M0 0 C8.95659929 -0.61533888 8.95659929 -0.61533888 12.4375 1.4375 C15.62119616 6.65876171 17.60456973 11.51858227 16.5 17.6875 C15.17009478 22.24262447 13.59831791 24.86104183 10 28 C5.84610112 29.6962382 2.37483386 30.34370847 -2 29.25 C-4 28 -4 28 -5 26 C-4.01 26 -3.02 26 -2 26 C-2 25.34 -2 24.68 -2 24 C0.31 24 2.62 24 5 24 C5.35268934 22.3373217 5.68033861 20.66934283 6 19 C6.226875 17.906875 6.45375 16.81375 6.6875 15.6875 C7.06452651 11.23858723 6.26936502 8.25610625 5 4 C2.69 4.33 0.38 4.66 -2 5 C-1.34 3.35 -0.68 1.7 0 0 Z " fill="#0C5749" transform="translate(297,278)"/>
<path d="M0 0 C3.135 -0.061875 6.27 -0.12375 9.5 -0.1875 C10.95696289 -0.22846802 10.95696289 -0.22846802 12.44335938 -0.27026367 C18.33372805 -0.32598014 22.66362178 0.44886305 28 3 C30.58575097 6.44766796 31.01169724 8.32156005 30.9375 12.625 C29.92971633 16.25302121 28.892153 17.66761855 26 20 C26 18.68 26 17.36 26 16 C26.66 16 27.32 16 28 16 C27.67 14.35 27.34 12.7 27 11 C23.75150023 12.72226496 23.75150023 12.72226496 23 16 C22.34 16 21.68 16 21 16 C21.103125 15.236875 21.20625 14.47375 21.3125 13.6875 C21.28820491 10.85698408 21.28820491 10.85698408 19 9.25 C15.24776101 7.68656709 12.04576188 7.34286118 8 7 C8.33 7.99 8.66 8.98 9 10 C8.83988879 12.70123106 8.39559392 15.31875231 8 18 C5.38992265 14.08488397 5.77993387 10.5480334 6 6 C6.33 5.34 6.66 4.68 7 4 C5.01508358 4.26676204 5.01508358 4.26676204 3 5 C1.49497823 9.51506532 1.99715285 14.12770055 2.12695312 18.83984375 C2.21299412 24.68050882 2.21299412 24.68050882 0 28 C0 18.76 0 9.52 0 0 Z " fill="#497E75" transform="translate(149,264)"/>
<path d="M0 0 C1.54538709 0.12764259 3.08981418 0.28155459 4.625 0.5 C3.10946596 3.97775179 1.0476544 6.4557984 -1.5 9.25 C-2.58667969 10.44882812 -2.58667969 10.44882812 -3.6953125 11.671875 C-4.24960938 12.27515625 -4.80390625 12.8784375 -5.375 13.5 C-2.51092056 17.37782577 0.34725432 21.22540329 3.5 24.875 C5.625 27.5 5.625 27.5 5.625 29.5 C-2.36753731 30.28358209 -2.36753731 30.28358209 -6.1875 27.3125 C-7.2703125 25.9203125 -7.2703125 25.9203125 -8.375 24.5 C-9.5196875 23.1078125 -9.5196875 23.1078125 -10.6875 21.6875 C-11.5228125 20.6046875 -11.5228125 20.6046875 -12.375 19.5 C-12.705 22.8 -13.035 26.1 -13.375 29.5 C-16.015 29.5 -18.655 29.5 -21.375 29.5 C-21.375 29.17 -21.375 28.84 -21.375 28.5 C-19.065 28.5 -16.755 28.5 -14.375 28.5 C-14.705 24.87 -15.035 21.24 -15.375 17.5 C-13.725 17.5 -12.075 17.5 -10.375 17.5 C-10.045 15.19 -9.715 12.88 -9.375 10.5 C-8.385 10.5 -7.395 10.5 -6.375 10.5 C-6.375 9.18 -6.375 7.86 -6.375 6.5 C-8.025 7.16 -9.675 7.82 -11.375 8.5 C-8.4574299 3.18670161 -6.42021832 -0.07295703 0 0 Z " fill="#296459" transform="translate(246.375,277.5)"/>
<path d="M0 0 C2.97 0 5.94 0 9 0 C9 9.57 9 19.14 9 29 C6.03 29 3.06 29 0 29 C0 19.43 0 9.86 0 0 Z " fill="#276B5F" transform="translate(184,278)"/>
<path d="M0 0 C5.75 -0.125 5.75 -0.125 8 1 C8 2.32 8 3.64 8 5 C9.423125 4.9690625 9.423125 4.9690625 10.875 4.9375 C14 5 14 5 16 6 C17.70611731 11.11835193 17.60928588 16.66440413 16.25 21.875 C14.73795593 24.44547493 13.31331438 26.09977748 11 28 C8.125 28.42578125 8.125 28.42578125 5 28.3125 C3.96875 28.28800781 2.9375 28.26351563 1.875 28.23828125 C-0.55025981 28.03727466 -2.67463917 27.68754659 -5 27 C-4.67 25.68 -4.34 24.36 -4 23 C-3.39671875 23.01160156 -2.7934375 23.02320313 -2.171875 23.03515625 C-1.37265625 23.04417969 -0.5734375 23.05320312 0.25 23.0625 C1.03890625 23.07410156 1.8278125 23.08570313 2.640625 23.09765625 C5.30478142 23.06703502 5.30478142 23.06703502 9 22 C9.33 17.38 9.66 12.76 10 8 C8.68 7.67 7.36 7.34 6 7 C6 6.34 6 5.68 6 5 C3.69 5 1.38 5 -1 5 C-0.67 3.35 -0.34 1.7 0 0 Z " fill="#055544" transform="translate(263,278)"/>
<path d="M0 0 C5.75 2.625 5.75 2.625 8 6 C8.68704955 10.71347948 8.65226594 14.7476494 6.4375 19 C0.52915268 23.84787473 -6.67661775 23.25403824 -13.9375 23.125 C-14.90751953 23.11597656 -15.87753906 23.10695313 -16.87695312 23.09765625 C-19.25140998 23.07426259 -21.62573838 23.03839776 -24 23 C-24 18.38 -24 13.76 -24 9 C-23.67 9 -23.34 9 -23 9 C-21.84863148 13.60547409 -22 16.93994143 -22 22 C-13.585 21.505 -13.585 21.505 -5 21 C-3.60229416 17.25308553 -3.60229416 17.25308553 -5 15 C-3.68 14.67 -2.36 14.34 -1 14 C-1.25561323 11.6568787 -1.59270772 9.32156597 -2 7 C-4.70183055 5.64908472 -7.11808206 5.66141942 -10.125 5.4375 C-11.76855469 5.31181641 -11.76855469 5.31181641 -13.4453125 5.18359375 C-14.28835937 5.12300781 -15.13140625 5.06242187 -16 5 C-16 4.67 -16 4.34 -16 4 C-15.16855469 3.93941406 -14.33710938 3.87882812 -13.48046875 3.81640625 C-12.39378906 3.73261719 -11.30710938 3.64882813 -10.1875 3.5625 C-8.56908203 3.44068359 -8.56908203 3.44068359 -6.91796875 3.31640625 C-3.94010095 3.09787539 -3.94010095 3.09787539 -1 2 C-0.67 1.34 -0.34 0.68 0 0 Z " fill="#2B685D" transform="translate(173,284)"/>
<path d="M0 0 C1.875 1.9375 1.875 1.9375 3 4 C2.67 4.99 2.34 5.98 2 7 C-1 5 -1 5 -1.6875 2.875 C-1.790625 2.25625 -1.89375 1.6375 -2 1 C-3.98 1 -5.96 1 -8 1 C-7.01 1.66 -6.02 2.32 -5 3 C-4.05078125 4.9453125 -4.05078125 4.9453125 -3.3125 7.125 C-3.06113281 7.84945313 -2.80976563 8.57390625 -2.55078125 9.3203125 C-2.36902344 9.87460937 -2.18726563 10.42890625 -2 11 C-3.375 12.5 -3.375 12.5 -5 14 C-5.66 14 -6.32 14 -7 14 C-7 13.34 -7 12.68 -7 12 C-15.09112472 13.08701309 -15.09112472 13.08701309 -22 17 C-22.89207179 20.0957107 -22.89207179 20.0957107 -23 23 C-23.33 23 -23.66 23 -24 23 C-24.31523361 18.98077152 -24.38044558 16.64816654 -22.3125 13.125 C-17.52578833 8.72640009 -11.15992992 9.89235074 -5 10 C-5.66 8.68 -6.32 7.36 -7 6 C-8.41655793 5.9727585 -9.83327045 5.95349533 -11.25 5.9375 C-12.03890625 5.92589844 -12.8278125 5.91429687 -13.640625 5.90234375 C-16.00234701 5.91917899 -16.00234701 5.91917899 -18.234375 6.56640625 C-18.81703125 6.70949219 -19.3996875 6.85257812 -20 7 C-21 6 -21 6 -21.0625 2.9375 C-21.041875 1.968125 -21.02125 0.99875 -21 0 C-14.24677889 -2.29896889 -6.48733401 -3.81607883 0 0 Z " fill="#1D6356" transform="translate(338,279)"/>
<path d="M0 0 C1.8871875 0.0309375 1.8871875 0.0309375 3.8125 0.0625 C3.8125 0.3925 3.8125 0.7225 3.8125 1.0625 C1.5025 1.0625 -0.8075 1.0625 -3.1875 1.0625 C-3.8475 2.7125 -4.5075 4.3625 -5.1875 6.0625 C-1.7225 5.5675 -1.7225 5.5675 1.8125 5.0625 C1.8125 5.7225 1.8125 6.3825 1.8125 7.0625 C2.8025 7.3925 3.7925 7.7225 4.8125 8.0625 C3.8225 8.3925 2.8325 8.7225 1.8125 9.0625 C1.4825 8.7325 1.1525 8.4025 0.8125 8.0625 C-2.1032691 7.64547878 -2.1032691 7.64547878 -5.1875 8.0625 C-8.0264981 10.41201567 -8.41501987 12.80670551 -8.875 16.3125 C-8.978125 17.55 -9.08125 18.7875 -9.1875 20.0625 C-9.5175 18.7425 -9.8475 17.4225 -10.1875 16.0625 C-12.60369823 15.81219023 -12.60369823 15.81219023 -15.1875 16.0625 C-15.8475 17.0525 -16.5075 18.0425 -17.1875 19.0625 C-17.1875 13.1225 -17.1875 7.1825 -17.1875 1.0625 C-13.85416667 1.0625 -10.52083333 1.0625 -7.1875 1.0625 C-4.43671116 0.14557039 -2.82801087 -0.04636083 0 0 Z " fill="#276A5E" transform="translate(300.1875,276.9375)"/>
<path d="M0 0 C1.17571451 3.67410785 1.07366746 7.16929183 1 11 C2.32 11.33 3.64 11.66 5 12 C4.67 11.01 4.34 10.02 4 9 C6.88211302 8.03929566 8.69850044 7.89418117 11.6875 7.9375 C12.89986328 7.95103516 12.89986328 7.95103516 14.13671875 7.96484375 C15.05904297 7.98224609 15.05904297 7.98224609 16 8 C16 9.98 16 11.96 16 14 C7.42 14 -1.16 14 -10 14 C-9 10 -9 10 -7 7 C-6.34 7 -5.68 7 -5 7 C-4.67 6.01 -4.34 5.02 -4 4 C-3.34 4 -2.68 4 -2 4 C-2 3.01 -2 2.02 -2 1 C-1.34 0.67 -0.68 0.34 0 0 Z " fill="#225E54" transform="translate(206,293)"/>
<path d="M0 0 C0 0.66 0 1.32 0 2 C-2.31 2 -4.62 2 -7 2 C-7 2.66 -7 3.32 -7 4 C-7.66 4 -8.32 4 -9 4 C-8.67 6.31 -8.34 8.62 -8 11 C-6.02 11 -4.04 11 -2 11 C-1.67 12.32 -1.34 13.64 -1 15 C-3.28634297 16.39894958 -4.58031945 17.03151185 -7.2890625 16.828125 C-8.44535156 16.54195313 -8.44535156 16.54195313 -9.625 16.25 C-10.40101563 16.06953125 -11.17703125 15.8890625 -11.9765625 15.703125 C-14 15 -14 15 -16 13 C-16.46376812 5.69565217 -16.46376812 5.69565217 -14 2 C-9.22382322 0.22064002 -5.07279555 -0.20705288 0 0 Z " fill="#115B4F" transform="translate(331,291)"/>
<path d="M0 0 C8.95659929 -0.61533888 8.95659929 -0.61533888 12.4375 1.4375 C15.3851868 6.27170635 17.18723133 10.86556286 16.6875 16.5625 C16.460625 17.366875 16.23375 18.17125 16 19 C14.47700477 16.06279492 13.19899698 13.0831351 12 10 C11.67 10.99 11.34 11.98 11 13 C10.34 13 9.68 13 9 13 C8.67 13.99 8.34 14.98 8 16 C7.86722656 15.38511719 7.73445313 14.77023437 7.59765625 14.13671875 C7.42105469 13.32847656 7.24445313 12.52023437 7.0625 11.6875 C6.88847656 10.88699219 6.71445312 10.08648437 6.53515625 9.26171875 C6.00113841 6.854599 6.00113841 6.854599 5 4 C2.69 4.33 0.38 4.66 -2 5 C-1.34 3.35 -0.68 1.7 0 0 Z " fill="#2F6B5F" transform="translate(297,278)"/>
<path d="M0 0 C0.33 0 0.66 0 1 0 C1.25249169 7.32225914 1.25249169 7.32225914 -0.1875 11.1875 C-1.35792961 14.07011352 -1.35792961 14.07011352 0.375 16.875 C0.91125 17.57625 1.4475 18.2775 2 19 C1.01 19.33 0.02 19.66 -1 20 C-1 19.34 -1 18.68 -1 18 C-1.99 18.33 -2.98 18.66 -4 19 C-4.66 18.67 -5.32 18.34 -6 18 C-6 16.35 -6 14.7 -6 13 C-12.27 12.67 -18.54 12.34 -25 12 C-24.67 11.01 -24.34 10.02 -24 9 C-21.36 9 -18.72 9 -16 9 C-16 8.01 -16 7.02 -16 6 C-15.34 6 -14.68 6 -14 6 C-14 6.99 -14 7.98 -14 9 C-10.37 9 -6.74 9 -3 9 C-2.01 6.03 -1.02 3.06 0 0 Z " fill="#1EB26C" transform="translate(126,268)"/>
<path d="M0 0 C9.0134833 -0.29552404 18.97482328 -0.35611227 26 6 C30.57270038 11.63285158 33.23200801 18.02011384 32.890625 25.34765625 C32.66350387 27.24144571 32.34119895 29.1234058 32 31 C31.67 31 31.34 31 31 31 C30.97421875 30.30132812 30.9484375 29.60265625 30.921875 28.8828125 C30.86515625 27.97273438 30.8084375 27.06265625 30.75 26.125 C30.70359375 25.22007812 30.6571875 24.31515625 30.609375 23.3828125 C30.24388852 20.82889456 30.24388852 20.82889456 27.953125 19.6796875 C27.30859375 19.45539063 26.6640625 19.23109375 26 19 C26 18.01 26 17.02 26 16 C25.34 16 24.68 16 24 16 C24.226875 15.443125 24.45375 14.88625 24.6875 14.3125 C25.22276617 11.87045663 25.22276617 11.87045663 23.8125 9.3125 C22.2204567 6.89735922 22.2204567 6.89735922 19.9375 6.125 C17.91752111 5.83129318 17.91752111 5.83129318 16 7 C15.67 6.01 15.34 5.02 15 4 C14.34 4 13.68 4 13 4 C13 3.34 13 2.68 13 2 C12.01 2.33 11.02 2.66 10 3 C7.51953125 2.66015625 7.51953125 2.66015625 4.8125 2.0625 C3.91144531 1.86785156 3.01039062 1.67320312 2.08203125 1.47265625 C1.39496094 1.31667969 0.70789063 1.16070312 0 1 C0 0.67 0 0.34 0 0 Z " fill="#5FD28E" transform="translate(96,243)"/>
<path d="M0 0 C0.66 0 1.32 0 2 0 C2.33 3.63 2.66 7.26 3 11 C4.794375 11.12375 6.58875 11.2475 8.4375 11.375 C11.49609375 11.5859375 11.49609375 11.5859375 14 12 C14.33 12.66 14.66 13.32 15 14 C14.34 15.32 13.68 16.64 13 18 C7.39 18 1.78 18 -4 18 C-3.34 17.67 -2.68 17.34 -2 17 C-2.33 15.68 -2.66 14.36 -3 13 C-2.01 12.67 -1.02 12.34 0 12 C0 8.04 0 4.08 0 0 Z " fill="#11584C" transform="translate(155,288)"/>
<path d="M0 0 C2.84410216 4.26615324 2.38479709 7.99763786 2 13 C0.93898729 17.06721538 -0.75845671 19.33730373 -4 22 C-6.875 22.42578125 -6.875 22.42578125 -10 22.3125 C-11.03125 22.28800781 -12.0625 22.26351563 -13.125 22.23828125 C-15.55025981 22.03727466 -17.67463917 21.68754659 -20 21 C-19.67 19.68 -19.34 18.36 -19 17 C-18.41992188 17.01160156 -17.83984375 17.02320313 -17.2421875 17.03515625 C-12.7001754 17.08762174 -8.47286431 16.91751063 -4 16 C-4 15.34 -4 14.68 -4 14 C-3.01 14 -2.02 14 -1 14 C-1 12.68 -1 11.36 -1 10 C-0.34 10 0.32 10 1 10 C0.505 5.05 0.505 5.05 0 0 Z " fill="#065142" transform="translate(278,284)"/>
<path d="M0 0 C0.66 0 1.32 0 2 0 C2.3125 2.8125 2.3125 2.8125 2 6 C1.195625 6.4125 0.39125 6.825 -0.4375 7.25 C-3.2229907 8.72782927 -3.2229907 8.72782927 -3.5546875 11.40234375 C-3.78958459 13.93994415 -3.94742331 16.45242028 -4 19 C-1.36 19 1.28 19 4 19 C4 19.33 4 19.66 4 20 C-2.435 20.495 -2.435 20.495 -9 21 C-9.43421053 10.14473684 -9.43421053 10.14473684 -6 6 C-4.37253306 4.29503463 -2.71108689 2.62102968 -1 1 C-0.67 0.67 -0.34 0.34 0 0 Z " fill="#0D6A56" transform="translate(111,290)"/>
<path d="M0 0 C1.4540625 0.0309375 1.4540625 0.0309375 2.9375 0.0625 C2.92702637 0.79887695 2.91655273 1.53525391 2.90576172 2.29394531 C2.86416298 5.63342876 2.83816136 8.97285765 2.8125 12.3125 C2.79574219 13.47136719 2.77898437 14.63023437 2.76171875 15.82421875 C2.75527344 16.93925781 2.74882812 18.05429687 2.7421875 19.203125 C2.73171387 20.22954102 2.72124023 21.25595703 2.71044922 22.31347656 C2.93913889 25.08234288 3.5131701 26.70668792 4.9375 29.0625 C4.31875 28.8975 3.7 28.7325 3.0625 28.5625 C0.97686614 27.98615356 0.97686614 27.98615356 -1.0625 28.0625 C-1.7225 28.7225 -2.3825 29.3825 -3.0625 30.0625 C-3.0625 25.7725 -3.0625 21.4825 -3.0625 17.0625 C-1.7425 16.7325 -0.4225 16.4025 0.9375 16.0625 C0.9375 12.1025 0.9375 8.1425 0.9375 4.0625 C-0.3825 4.3925 -1.7025 4.7225 -3.0625 5.0625 C-3.625 3.125 -3.625 3.125 -4.0625 1.0625 C-3.0625 0.0625 -3.0625 0.0625 0 0 Z " fill="#065043" transform="translate(229.0625,264.9375)"/>
<path d="M0 0 C0 0.66 0 1.32 0 2 C0.99 2.33 1.98 2.66 3 3 C2.67 3.66 2.34 4.32 2 5 C-0.97 4.505 -0.97 4.505 -4 4 C-4 2.68 -4 1.36 -4 0 C-6.64 0 -9.28 0 -12 0 C-12 0.99 -12 1.98 -12 3 C-9.03 3.495 -9.03 3.495 -6 4 C-6.33 4.66 -6.66 5.32 -7 6 C-7.9075 5.9175 -8.815 5.835 -9.75 5.75 C-13.10041408 5.68975201 -13.10041408 5.68975201 -15.375 8 C-15.91125 8.66 -16.4475 9.32 -17 10 C-17 7.69 -17 5.38 -17 3 C-17.598125 3.66 -18.19625 4.32 -18.8125 5 C-21 7 -21 7 -24 7 C-23.66902062 3.91085915 -22.99715301 2.9973069 -20.6875 0.8125 C-14.68771046 -3.23386969 -6.40049883 -3.30348327 0 0 Z " fill="#0E5A4D" transform="translate(275,279)"/>
<path d="M0 0 C1.65 0 3.3 0 5 0 C5.95619733 3.99795892 6.1039592 7.70803922 6.0625 11.8125 C6.05347656 12.97394531 6.04445313 14.13539063 6.03515625 15.33203125 C6.02355469 16.21246094 6.01195312 17.09289062 6 18 C4.02 18 2.04 18 0 18 C0 12.06 0 6.12 0 0 Z " fill="#075346" transform="translate(284,301)"/>
<path d="M0 0 C0.33 0 0.66 0 1 0 C2.05751676 6.87385894 2 12.83937388 2 20 C10.58 20 19.16 20 28 20 C28 20.33 28 20.66 28 21 C20.93423331 21.07595253 13.86857156 21.12855861 6.80249023 21.16479492 C4.39782782 21.17989816 1.99319302 21.20038208 -0.41137695 21.22631836 C-3.86416431 21.26263351 -7.31658804 21.279711 -10.76953125 21.29296875 C-12.38683891 21.31619453 -12.38683891 21.31619453 -14.03681946 21.33988953 C-15.03763046 21.34011612 -16.03844147 21.34034271 -17.06958008 21.34057617 C-17.95116287 21.34723801 -18.83274567 21.35389984 -19.74104309 21.36076355 C-22.48411271 20.92268546 -23.37542416 20.22269294 -25 18 C-25.1875 15.3125 -25.1875 15.3125 -25 13 C-24.6596875 13.928125 -24.6596875 13.928125 -24.3125 14.875 C-22.52261077 17.77291589 -21.26922801 18.01242071 -18 19 C-14.89994548 19.37066262 -11.8061556 19.50642421 -8.6875 19.625 C-5.820625 19.74875 -2.95375 19.8725 0 20 C0 13.4 0 6.8 0 0 Z " fill="#0F7668" transform="translate(78,311)"/>
<path d="M0 0 C0.99 0.33 1.98 0.66 3 1 C-0.63 4.96 -4.26 8.92 -8 13 C-7.67 13.66 -7.34 14.32 -7 15 C-3.37 15 0.26 15 4 15 C4 15.33 4 15.66 4 16 C1.36 16 -1.28 16 -4 16 C-4.33 16.66 -4.66 17.32 -5 18 C-5.33 18.66 -5.66 19.32 -6 20 C-7.65 20 -9.3 20 -11 20 C-10.96744792 17.98177083 -10.93489583 15.96354167 -10.90234375 13.9453125 C-10.87350758 11.91814596 -10.87350758 11.91814596 -12 10 C-11.34 10 -10.68 10 -10 10 C-9.67 9.01 -9.34 8.02 -9 7 C-7.25 5.5625 -7.25 5.5625 -5 4 C-4.154375 3.2575 -3.30875 2.515 -2.4375 1.75 C-1.633125 1.1725 -0.82875 0.595 0 0 Z " fill="#2D6E60" transform="translate(217,285)"/>
<path d="M0 0 C2.31 0 4.62 0 7 0 C7.66 1.65 8.32 3.3 9 5 C9.66 5 10.32 5 11 5 C13.80722691 9.21084037 12.94537893 11.11554218 12 16 C11.34 16.33 10.68 16.66 10 17 C5 11.375 5 11.375 5 8 C3.88893396 4.58133526 2.72957339 2.35735884 0 0 Z " fill="#054D3F" transform="translate(329,279)"/>
<path d="M0 0 C3.46911925 1.73455962 3.95588755 5.57226392 5.16796875 9.0859375 C7.1767772 16.12148259 5.82925026 21.39841607 3 28 C2.67 28 2.34 28 2 28 C1.67 25.69 1.34 23.38 1 21 C1.66 21 2.32 21 3 21 C3 20.01 3 19.02 3 18 C2.34 18 1.68 18 1 18 C0.30739642 11.96445452 -0.11251733 6.07593562 0 0 Z " fill="#55A993" transform="translate(128,287)"/>
<path d="M0 0 C6.93 0 13.86 0 21 0 C21 0.99 21 1.98 21 3 C20.01 3 19.02 3 18 3 C17.01 3.33 16.02 3.66 15 4 C12.42734182 4.07029121 9.88358569 4.09370832 7.3125 4.0625 C6.61060547 4.05798828 5.90871094 4.05347656 5.18554688 4.04882812 C3.45699462 4.03706927 1.72848635 4.01913454 0 4 C0 2.68 0 1.36 0 0 Z " fill="#065545" transform="translate(197,279)"/>
<path d="M0 0 C1.0625 1.875 1.0625 1.875 2 4 C1.67 4.66 1.34 5.32 1 6 C0.34 6 -0.32 6 -1 6 C-1 7.32 -1 8.64 -1 10 C-1.66 10 -2.32 10 -3 10 C-3.33 10.99 -3.66 11.98 -4 13 C-4.33 12.34 -4.66 11.68 -5 11 C-5.66 11 -6.32 11 -7 11 C-7.33 10.67 -7.66 10.34 -8 10 C-8.99 11.485 -8.99 11.485 -10 13 C-10.99 12.67 -11.98 12.34 -13 12 C-13 11.34 -13 10.68 -13 10 C-14.65 9.67 -16.3 9.34 -18 9 C-18 8.67 -18 8.34 -18 8 C-17.11248047 7.90912109 -17.11248047 7.90912109 -16.20703125 7.81640625 C-12.09021792 7.37987629 -8.04455467 6.91328654 -4 6 C-3.896875 5.38125 -3.79375 4.7625 -3.6875 4.125 C-3 2 -3 2 0 0 Z " fill="#055445" transform="translate(176,274)"/>
<path d="M0 0 C7.12600133 -0.35368021 12.47059106 0.04328652 19 3 C18.67 4.32 18.34 5.64 18 7 C13.05334733 7.35333233 10.31895786 6.33943551 6 4 C4.01132287 3.30028027 2.01391949 2.62335603 0 2 C0 1.34 0 0.68 0 0 Z " fill="#055546" transform="translate(158,266)"/>
<path d="M0 0 C1.175625 0.0825 2.35125 0.165 3.5625 0.25 C5.5625 3.25 5.5625 3.25 5.1875 5.9375 C4.98125 6.700625 4.775 7.46375 4.5625 8.25 C1.1875 8.875 1.1875 8.875 -2.4375 9.25 C-4.4375 7.25 -4.4375 7.25 -4.625 4.1875 C-4.35637999 -0.02088008 -4.30150996 0.31283709 0 0 Z " fill="#085345" transform="translate(188.4375,262.75)"/>
<path d="M0 0 C2.9375 1.3125 2.9375 1.3125 6 3 C6.33 3.99 6.66 4.98 7 6 C5.68 6 4.36 6 3 6 C0.23776722 8.76223278 0.42143709 11.20706617 0 15 C-1.65 15.33 -3.3 15.66 -5 16 C-3.68 15.34 -2.36 14.68 -1 14 C-1.25561323 11.6568787 -1.59270772 9.32156597 -2 7 C-4.70183055 5.64908472 -7.11808206 5.66141942 -10.125 5.4375 C-11.76855469 5.31181641 -11.76855469 5.31181641 -13.4453125 5.18359375 C-14.28835937 5.12300781 -15.13140625 5.06242187 -16 5 C-16 4.67 -16 4.34 -16 4 C-15.16855469 3.93941406 -14.33710938 3.87882812 -13.48046875 3.81640625 C-12.39378906 3.73261719 -11.30710938 3.64882813 -10.1875 3.5625 C-8.56908203 3.44068359 -8.56908203 3.44068359 -6.91796875 3.31640625 C-3.94010095 3.09787539 -3.94010095 3.09787539 -1 2 C-0.67 1.34 -0.34 0.68 0 0 Z " fill="#4C8279" transform="translate(173,284)"/>
<path d="M0 0 C2.97 0.495 2.97 0.495 6 1 C5.25 6.75 5.25 6.75 3 9 C2.01 9 1.02 9 0 9 C0 14.94 0 20.88 0 27 C-0.33 27 -0.66 27 -1 27 C-1.02905924 23.2500163 -1.04681874 19.50006163 -1.0625 15.75 C-1.07087891 14.68652344 -1.07925781 13.62304688 -1.08789062 12.52734375 C-1.09111328 11.50253906 -1.09433594 10.47773438 -1.09765625 9.421875 C-1.10289307 8.47924805 -1.10812988 7.53662109 -1.11352539 6.56542969 C-1.00968082 4.21876563 -0.66706529 2.24355522 0 0 Z " fill="#36746A" transform="translate(284,292)"/>
<path d="M0 0 C5.08354143 1.85744783 7.97758149 3.28502713 11 8 C11 8.66 11 9.32 11 10 C8.03 10 5.06 10 2 10 C2 8.35 2 6.7 2 5 C0.68 4.34 -0.64 3.68 -2 3 C-1.34 2.01 -0.68 1.02 0 0 Z " fill="#054B3C" transform="translate(241,297)"/>
<path d="M0 0 C0.33 0 0.66 0 1 0 C1.33 7.26 1.66 14.52 2 22 C5.3 21.67 8.6 21.34 12 21 C14.33306555 20.96465052 16.66721783 20.94928734 19 21 C19.33 20.34 19.66 19.68 20 19 C20.99 19.33 21.98 19.66 23 20 C23 20.66 23 21.32 23 22 C23.66 22.33 24.32 22.66 25 23 C16.75 23 8.5 23 0 23 C0 15.41 0 7.82 0 0 Z " fill="#108B76" transform="translate(53,278)"/>
<path d="M0 0 C0.66 0 1.32 0 2 0 C2.33 2.64 2.66 5.28 3 8 C2.01 8.33 1.02 8.66 0 9 C-0.33 11.64 -0.66 14.28 -1 17 C-1.99 17 -2.98 17 -4 17 C-4.68844492 6.25260979 -4.68844492 6.25260979 -2.125 2.3125 C-1.42375 1.549375 -0.7225 0.78625 0 0 Z " fill="#035646" transform="translate(256,282)"/>
<path d="M0 0 C1.17661508 3.67692213 1.14475933 7.1638778 1 11 C0 12 0 12 -1.84765625 12.09765625 C-3.8984375 12.06510417 -5.94921875 12.03255208 -8 12 C-7.67 10.35 -7.34 8.7 -7 7 C-6.34 7 -5.68 7 -5 7 C-4.67 6.01 -4.34 5.02 -4 4 C-3.34 4 -2.68 4 -2 4 C-2 3.01 -2 2.02 -2 1 C-1.34 0.67 -0.68 0.34 0 0 Z " fill="#025746" transform="translate(206,293)"/>
<path d="M0 0 C0.66 0 1.32 0 2 0 C2.3125 2.8125 2.3125 2.8125 2 6 C-0.5 7.5 -0.5 7.5 -3 9 C-3.41746608 12.12635209 -3.41746608 12.12635209 -3 15 C-3.66 14.67 -4.32 14.34 -5 14 C-5.625 11.9375 -5.625 11.9375 -6 10 C-6.66 10 -7.32 10 -8 10 C-6.44303593 6.17836093 -3.96591316 3.81381505 -1 1 C-0.67 0.67 -0.34 0.34 0 0 Z " fill="#107957" transform="translate(111,290)"/>
<path d="M0 0 C0.33 0.66 0.66 1.32 1 2 C7.27 2 13.54 2 20 2 C20 2.33 20 2.66 20 3 C18.77023438 3.09087891 18.77023438 3.09087891 17.515625 3.18359375 C16.43796875 3.26738281 15.3603125 3.35117187 14.25 3.4375 C12.64898437 3.55931641 12.64898437 3.55931641 11.015625 3.68359375 C8.11943109 3.91228434 8.11943109 3.91228434 5.83984375 4.55859375 C2.8022072 5.28736855 0.02594168 4.57093239 -3 4 C-3.33 3.67 -3.66 3.34 -4 3 C-6.85877909 2.76298761 -9.69883297 2.57780818 -12.5625 2.4375 C-13.36880859 2.39431641 -14.17511719 2.35113281 -15.00585938 2.30664062 C-17.00368805 2.20024738 -19.0018207 2.09959112 -21 2 C-21 1.67 -21 1.34 -21 1 C-10.605 0.505 -10.605 0.505 0 0 Z " fill="#7BDAA9" transform="translate(100,278)"/>
<path d="M0 0 C2.64 0 5.28 0 8 0 C6.24277009 4.31320068 3.1937832 7.9031084 -1 10 C-2.15837626 5.94568308 -1.83691257 3.78187881 0 0 Z " fill="#1E5D50" transform="translate(243,278)"/>
<path d="M0 0 C0.804375 0.185625 1.60875 0.37125 2.4375 0.5625 C3.283125 0.706875 4.12875 0.85125 5 1 C5.33 0.67 5.66 0.34 6 0 C7.99958364 -0.04080783 10.00045254 -0.04254356 12 0 C12.33 1.32 12.66 2.64 13 4 C10.08291076 5.98362069 8.87619096 5.9876191 5.25 5.625 C4.1775 5.41875 3.105 5.2125 2 5 C1.34 3.35 0.68 1.7 0 0 Z " fill="#126155" transform="translate(317,302)"/>
<path d="M0 0 C0.99 0 1.98 0 3 0 C3 4.62 3 9.24 3 14 C-1.61871887 15.84748755 -2.76503204 16.23132906 -7.3125 15.625 C-8.19550781 15.51414062 -9.07851563 15.40328125 -9.98828125 15.2890625 C-10.65214844 15.19367188 -11.31601562 15.09828125 -12 15 C-12 12.69 -12 10.38 -12 8 C-11.731875 8.61875 -11.46375 9.2375 -11.1875 9.875 C-10.04443152 12.2995233 -10.04443152 12.2995233 -7 14 C-3.91004903 14.08223366 -3.91004903 14.08223366 -1 13 C1.90898483 8.82623916 0.80322894 4.73905077 0 0 Z " fill="#518780" transform="translate(270,286)"/>
<path d="M0 0 C0.66 0.33 1.32 0.66 2 1 C1.814375 1.9075 1.62875 2.815 1.4375 3.75 C0.81366385 6.8437466 0.81366385 6.8437466 1.5625 9.1875 C1.706875 9.785625 1.85125 10.38375 2 11 C1.01 12.485 1.01 12.485 0 14 C0.99 14.99 1.98 15.98 3 17 C2.67 17.66 2.34 18.32 2 19 C-1 17.3125 -1 17.3125 -4 15 C-4.375 12.25 -4.375 12.25 -4 10 C-3.01 10 -2.02 10 -1 10 C-1 8.68 -1 7.36 -1 6 C-2.65 6.66 -4.3 7.32 -6 8 C-4.02 5.36 -2.04 2.72 0 0 Z " fill="#53877E" transform="translate(241,278)"/>
<path d="M0 0 C3.6041498 -0.02900455 7.20826962 -0.04680018 10.8125 -0.0625 C11.83666016 -0.07087891 12.86082031 -0.07925781 13.91601562 -0.08789062 C15.39038086 -0.09272461 15.39038086 -0.09272461 16.89453125 -0.09765625 C17.80050049 -0.10289307 18.70646973 -0.10812988 19.63989258 -0.11352539 C22 0 22 0 25 1 C25 1.66 25 2.32 25 3 C25.66 3 26.32 3 27 3 C27 5.97 27 8.94 27 12 C26.01 12 25.02 12 24 12 C24 8.7 24 5.4 24 2 C16.08 2 8.16 2 0 2 C0 1.34 0 0.68 0 0 Z " fill="#76DCB1" transform="translate(78,265)"/>
<path d="M0 0 C1.8871875 0.0309375 1.8871875 0.0309375 3.8125 0.0625 C3.8125 0.3925 3.8125 0.7225 3.8125 1.0625 C1.5025 1.0625 -0.8075 1.0625 -3.1875 1.0625 C-3.8475 2.7125 -4.5075 4.3625 -5.1875 6.0625 C-1.7225 5.5675 -1.7225 5.5675 1.8125 5.0625 C1.8125 5.7225 1.8125 6.3825 1.8125 7.0625 C2.8025 7.3925 3.7925 7.7225 4.8125 8.0625 C3.8225 8.3925 2.8325 8.7225 1.8125 9.0625 C1.4825 8.7325 1.1525 8.4025 0.8125 8.0625 C-3.21910191 7.79956944 -4.74642734 7.76845156 -8.1875 10.0625 C-7.5275 8.4125 -6.8675 6.7625 -6.1875 5.0625 C-7.5075 4.7325 -8.8275 4.4025 -10.1875 4.0625 C-9.8575 3.0725 -9.5275 2.0825 -9.1875 1.0625 C-8.5275 1.0625 -7.8675 1.0625 -7.1875 1.0625 C-4.43671116 0.14557039 -2.82801087 -0.04636083 0 0 Z " fill="#467F76" transform="translate(300.1875,276.9375)"/>
<path d="M0 0 C0.66 0.66 1.32 1.32 2 2 C3.99969337 2.32010045 3.99969337 2.32010045 6.28125 2.30859375 C7.12300781 2.33373047 7.96476562 2.35886719 8.83203125 2.38476562 C10.61060419 2.41992043 12.38925859 2.45117089 14.16796875 2.47851562 C15.43060547 2.5181543 15.43060547 2.5181543 16.71875 2.55859375 C17.87793945 2.57877563 17.87793945 2.57877563 19.06054688 2.59936523 C21 3 21 3 23 6 C11.615 5.505 11.615 5.505 0 5 C0 3.35 0 1.7 0 0 Z " fill="#1DB176" transform="translate(79,260)"/>
<path d="M0 0 C0.99 0 1.98 0 3 0 C2.11696762 4.77257975 -0.54392318 7.71755384 -4 11 C-6.875 12.4375 -6.875 12.4375 -9 13 C-9 12.01 -9 11.02 -9 10 C-7.68 10 -6.36 10 -5 10 C-5.66 8.35 -6.32 6.7 -7 5 C-5.5459375 4.5978125 -5.5459375 4.5978125 -4.0625 4.1875 C-3.051875 3.795625 -2.04125 3.40375 -1 3 C-0.67 2.01 -0.34 1.02 0 0 Z " fill="#59C7A2" transform="translate(127,315)"/>
<path d="M0 0 C0.6875 1.75 0.6875 1.75 1 4 C-0.3125 6.25 -0.3125 6.25 -2 8 C-2.66 8 -3.32 8 -4 8 C-4 8.99 -4 9.98 -4 11 C-5.375 12.6875 -5.375 12.6875 -7 14 C-7.66 14 -8.32 14 -9 14 C-9.66 15.32 -10.32 16.64 -11 18 C-11.33 17.01 -11.66 16.02 -12 15 C-11.34 14.01 -10.68 13.02 -10 12 C-9.34 12 -8.68 12 -8 12 C-7.938125 11.443125 -7.87625 10.88625 -7.8125 10.3125 C-6.66587721 7.04903513 -4.48044843 5.35945094 -2 3 C-1.34 2.01 -0.68 1.02 0 0 Z " fill="#4C8278" transform="translate(208,286)"/>
<path d="M0 0 C0 0.33 0 0.66 0 1 C-0.84304688 1.10957031 -1.68609375 1.21914063 -2.5546875 1.33203125 C-3.65039062 1.49058594 -4.74609375 1.64914062 -5.875 1.8125 C-7.51082031 2.03873047 -7.51082031 2.03873047 -9.1796875 2.26953125 C-12.31238846 2.74665741 -12.31238846 2.74665741 -14 6 C-10.04 6 -6.08 6 -2 6 C-2 6.33 -2 6.66 -2 7 C-2.90492188 7.09087891 -2.90492188 7.09087891 -3.828125 7.18359375 C-5.02695312 7.30927734 -5.02695312 7.30927734 -6.25 7.4375 C-7.03890625 7.51871094 -7.8278125 7.59992188 -8.640625 7.68359375 C-10.9987921 7.94871809 -10.9987921 7.94871809 -13.234375 8.59765625 C-13.81703125 8.73042969 -14.3996875 8.86320312 -15 9 C-16 8 -16 8 -16.0625 4.9375 C-16.041875 3.968125 -16.02125 2.99875 -16 2 C-10.51324804 0.13216954 -5.77807024 -0.2358396 0 0 Z " fill="#51827B" transform="translate(333,277)"/>
<path d="M0 0 C0.12375 0.639375 0.2475 1.27875 0.375 1.9375 C0.58125 2.618125 0.7875 3.29875 1 4 C1.66 4.33 2.32 4.66 3 5 C2.67 5.99 2.34 6.98 2 8 C4.31 8 6.62 8 9 8 C9 8.33 9 8.66 9 9 C3.66404866 9.27131956 0.38616179 9.4266889 -4 6 C-4 5.67 -4 5.34 -4 5 C-5.65 4.67 -7.3 4.34 -9 4 C-8.67 3.34 -8.34 2.68 -8 2 C-5.67284 1.62599214 -3.33882138 1.29235267 -1 1 C-0.67 0.67 -0.34 0.34 0 0 Z " fill="#447971" transform="translate(332,298)"/>
<path d="M0 0 C2.31 0 4.62 0 7 0 C6.01 0.495 6.01 0.495 5 1 C5 1.66 5 2.32 5 3 C6.65 3 8.3 3 10 3 C9.34 4.32 8.68 5.64 8 7 C7.01 6.67 6.02 6.34 5 6 C5 5.34 5 4.68 5 4 C2.69 4.33 0.38 4.66 -2 5 C-1.34 3.35 -0.68 1.7 0 0 Z " fill="#055446" transform="translate(297,278)"/>
<path d="M0 0 C0 0.33 0 0.66 0 1 C-1.48113281 1.39832031 -1.48113281 1.39832031 -2.9921875 1.8046875 C-4.28655498 2.16110753 -5.58082059 2.51789766 -6.875 2.875 C-7.52597656 3.04902344 -8.17695313 3.22304688 -8.84765625 3.40234375 C-12.8068437 4.49529579 -12.8068437 4.49529579 -16 7 C-16.39764263 8.98821313 -16.73775349 10.98944339 -17 13 C-17.33 13 -17.66 13 -18 13 C-18.31523361 8.98077152 -18.38044558 6.64816654 -16.3125 3.125 C-11.72033175 -1.09483029 -5.91091432 -0.11590028 0 0 Z " fill="#5C9385" transform="translate(332,289)"/>
<path d="M0 0 C6.63867229 -0.21766139 13.68296245 -0.28925121 20 2 C21.31640625 4.078125 21.31640625 4.078125 22 6 C20.02 6.33 18.04 6.66 16 7 C15.67 6.01 15.34 5.02 15 4 C14.34 4 13.68 4 13 4 C13 3.34 13 2.68 13 2 C12.01 2.33 11.02 2.66 10 3 C7.51953125 2.66015625 7.51953125 2.66015625 4.8125 2.0625 C3.91144531 1.86785156 3.01039062 1.67320312 2.08203125 1.47265625 C1.39496094 1.31667969 0.70789063 1.16070312 0 1 C0 0.67 0 0.34 0 0 Z " fill="#54D37F" transform="translate(96,243)"/>
<path d="M0 0 C0.66 0.33 1.32 0.66 2 1 C2.59355614 3.64860427 2.74209269 6.29197322 3 9 C0.69 9 -1.62 9 -4 9 C-3.46930939 5.17902761 -2.50298434 2.93828597 0 0 Z " fill="#095044" transform="translate(338,297)"/>
<path d="M0 0 C1.32 0.66 2.64 1.32 4 2 C4 2.99 4 3.98 4 5 C3.39671875 4.98839844 2.7934375 4.97679687 2.171875 4.96484375 C1.37265625 4.95582031 0.5734375 4.94679688 -0.25 4.9375 C-1.03890625 4.92589844 -1.8278125 4.91429687 -2.640625 4.90234375 C-4.90691002 4.99614694 -6.8288895 5.36758937 -9 6 C-9.33 5.34 -9.66 4.68 -10 4 C-9.01 4 -8.02 4 -7 4 C-7 3.34 -7 2.68 -7 2 C-4.69 2 -2.38 2 0 2 C0 1.34 0 0.68 0 0 Z " fill="#025344" transform="translate(302,300)"/>
<path d="M0 0 C0.33 0.66 0.66 1.32 1 2 C-2.44615385 6.8 -2.44615385 6.8 -5.25 7.8125 C-6.11625 7.9053125 -6.11625 7.9053125 -7 8 C-7.66 6.35 -8.32 4.7 -9 3 C-6.35261084 1.5393715 -5.10551666 1 -2 1 C-1.34 0.67 -0.68 0.34 0 0 Z " fill="#37746A" transform="translate(180,298)"/>
<path d="M0 0 C2.64 0 5.28 0 8 0 C7.67 0.99 7.34 1.98 7 3 C6.34 3 5.68 3 5 3 C4.773125 3.61875 4.54625 4.2375 4.3125 4.875 C2.62070165 7.61410209 1.00755839 8.05024472 -2 9 C-1.67 8.01 -1.34 7.02 -1 6 C-0.01 6 0.98 6 2 6 C2 5.01 2 4.02 2 3 C1.34 3 0.68 3 0 3 C0 2.01 0 1.02 0 0 Z " fill="#4EC986" transform="translate(111,281)"/>
<path d="M0 0 C0.226875 0.61875 0.45375 1.2375 0.6875 1.875 C2.47738923 4.77291589 3.73077199 5.01242071 7 6 C10.09927245 6.37056911 13.19458224 6.50687841 16.3125 6.625 C17.14845703 6.66367187 17.98441406 6.70234375 18.84570312 6.7421875 C20.89679259 6.83595159 22.94836515 6.91904245 25 7 C25 7.33 25 7.66 25 8 C21.39598519 8.08701039 17.79223988 8.14039388 14.1875 8.1875 C12.65125977 8.22520508 12.65125977 8.22520508 11.08398438 8.26367188 C9.60961914 8.27817383 9.60961914 8.27817383 8.10546875 8.29296875 C7.19949951 8.3086792 6.29353027 8.32438965 5.36010742 8.34057617 C3 8 3 8 1.19262695 6.6496582 C-0.44032294 4.39093918 -0.22033132 2.71741961 0 0 Z " fill="#16544A" transform="translate(53,324)"/>
<path d="M0 0 C1.175625 0.0825 2.35125 0.165 3.5625 0.25 C5.5625 3.25 5.5625 3.25 5.1875 5.9375 C4.98125 6.700625 4.775 7.46375 4.5625 8.25 C1.1875 8.875 1.1875 8.875 -2.4375 9.25 C-4.4375 7.25 -4.4375 7.25 -4.625 4.1875 C-4.35637999 -0.02088008 -4.30150996 0.31283709 0 0 Z M-2.4375 1.25 C-3.73383621 2.31645115 -3.73383621 2.31645115 -3.5 4.8125 C-3.479375 5.616875 -3.45875 6.42125 -3.4375 7.25 C0.14577753 8.25217064 0.14577753 8.25217064 3.5625 7.25 C3.2325 5.6 2.9025 3.95 2.5625 2.25 C0.90635343 1.86781233 -0.76207024 1.53604898 -2.4375 1.25 Z " fill="#5E887E" transform="translate(188.4375,262.75)"/>
<path d="M0 0 C2.97 0.33 5.94 0.66 9 1 C9 1.99 9 2.98 9 4 C5.33694766 4.74926071 2.57644848 5.2380014 -1 4 C-0.67 2.68 -0.34 1.36 0 0 Z " fill="#055644" transform="translate(259,301)"/>
<path d="M0 0 C0.66 0 1.32 0 2 0 C2 0.99 2 1.98 2 3 C3.98 3 5.96 3 8 3 C8.33 3.66 8.66 4.32 9 5 C3.72 5 -1.56 5 -7 5 C-7 4.34 -7 3.68 -7 3 C-4.69 3 -2.38 3 0 3 C0 2.01 0 1.02 0 0 Z " fill="#0BB168" transform="translate(110,274)"/>
<path d="M0 0 C0.99 0.33 1.98 0.66 3 1 C2.67 1.99 2.34 2.98 2 4 C3.37249963 6.67676547 3.37249963 6.67676547 5 9 C4.01 9.33 3.02 9.66 2 10 C2 9.34 2 8.68 2 8 C1.01 8.33 0.02 8.66 -1 9 C-1.66 8.67 -2.32 8.34 -3 8 C-2.67 6.68 -2.34 5.36 -2 4 C-1.34 4 -0.68 4 0 4 C0 2.68 0 1.36 0 0 Z " fill="#59A88E" transform="translate(123,278)"/>
<path d="M0 0 C9.41002278 -0.3690205 9.41002278 -0.3690205 14 2 C14 2.66 14 3.32 14 4 C14.99 4.33 15.98 4.66 17 5 C16.67 5.66 16.34 6.32 16 7 C13.03 6.505 13.03 6.505 10 6 C10 4.68 10 3.36 10 2 C6.7 1.67 3.4 1.34 0 1 C0 0.67 0 0.34 0 0 Z " fill="#538279" transform="translate(261,277)"/>
<path d="M0 0 C3.58326501 -0.05814085 7.16640838 -0.09364357 10.75 -0.125 C11.76578125 -0.14175781 12.7815625 -0.15851563 13.828125 -0.17578125 C14.8078125 -0.18222656 15.7875 -0.18867188 16.796875 -0.1953125 C17.69760742 -0.20578613 18.59833984 -0.21625977 19.52636719 -0.22705078 C22.13926856 0.01278324 23.75664666 0.67687936 26 2 C25.67 2.66 25.34 3.32 25 4 C24.03964844 3.67257812 23.07929688 3.34515625 22.08984375 3.0078125 C17.56843141 1.7159804 13.23207954 1.77716836 8.5625 1.875 C7.32209961 1.88853516 7.32209961 1.88853516 6.05664062 1.90234375 C4.03763292 1.92568488 2.01877644 1.96154712 0 2 C0 1.34 0 0.68 0 0 Z " fill="#356B62" transform="translate(151,265)"/>
<path d="M0 0 C1.77503906 0.03480469 1.77503906 0.03480469 3.5859375 0.0703125 C5.36871094 0.09738281 5.36871094 0.09738281 7.1875 0.125 C8.10273437 0.14820313 9.01796875 0.17140625 9.9609375 0.1953125 C9.9609375 0.5253125 9.9609375 0.8553125 9.9609375 1.1953125 C6.6609375 1.5253125 3.3609375 1.8553125 -0.0390625 2.1953125 C-0.3690625 3.1853125 -0.6990625 4.1753125 -1.0390625 5.1953125 C-2.0290625 5.6903125 -2.0290625 5.6903125 -3.0390625 6.1953125 C-3.6990625 7.1853125 -4.3590625 8.1753125 -5.0390625 9.1953125 C-5.1640625 5.8203125 -5.1640625 5.8203125 -5.0390625 2.1953125 C-3.0390625 0.1953125 -3.0390625 0.1953125 0 0 Z " fill="#5BC992" transform="translate(58.0390625,242.8046875)"/>
<path d="M0 0 C4.875 4.625 4.875 4.625 6 8 C3.03 8 0.06 8 -3 8 C-2.34 7.67 -1.68 7.34 -1 7 C-0.59270772 4.67843403 -0.25561323 2.3431213 0 0 Z " fill="#3F796E" transform="translate(246,299)"/>
<path d="M0 0 C1.18851563 0.00902344 2.37703125 0.01804687 3.6015625 0.02734375 C4.51679688 0.03894531 5.43203125 0.05054688 6.375 0.0625 C6.375 0.3925 6.375 0.7225 6.375 1.0625 C3.735 1.0625 1.095 1.0625 -1.625 1.0625 C-1.955 1.7225 -2.285 2.3825 -2.625 3.0625 C-2.955 3.7225 -3.285 4.3825 -3.625 5.0625 C-5.275 5.0625 -6.925 5.0625 -8.625 5.0625 C-8.625 3.7425 -8.625 2.4225 -8.625 1.0625 C-5.74084117 -0.37957941 -3.20778472 -0.03144887 0 0 Z " fill="#297169" transform="translate(214.625,299.9375)"/>
<path d="M0 0 C0 1.98 0 3.96 0 6 C-0.99 6.495 -0.99 6.495 -2 7 C-4.625 5.6875 -4.625 5.6875 -7 4 C-7 3.34 -7 2.68 -7 2 C-2.25 0 -2.25 0 0 0 Z " fill="#0EB883" transform="translate(130,309)"/>
<path d="M0 0 C0.66 0.99 1.32 1.98 2 3 C-3.22270869 5.66464729 -6.0819503 6.32854177 -12 5 C-10.5 3.4375 -10.5 3.4375 -8 2 C-5.22562457 2.03176766 -2.74713533 2.49635852 0 3 C0 2.01 0 1.02 0 0 Z " fill="#2C6C64" transform="translate(306,302)"/>
<path d="M0 0 C2.83360193 4.25040289 2.41305774 8.01153346 2 13 C1 16.125 1 16.125 0 18 C-0.33 18 -0.66 18 -1 18 C-1 15.36 -1 12.72 -1 10 C-0.34 10 0.32 10 1 10 C0.67 6.7 0.34 3.4 0 0 Z " fill="#447B6D" transform="translate(278,284)"/>
<path d="M0 0 C0.66 0.33 1.32 0.66 2 1 C3.04884468 5.11469837 3.24037088 7.38190346 1.6875 11.375 C0 14 0 14 -2 15 C-2 13.68 -2 12.36 -2 11 C-1.34 11 -0.68 11 0 11 C0 7.37 0 3.74 0 0 Z " fill="#618E88" transform="translate(177,269)"/>
<path d="M0 0 C0.8353125 0.37125 0.8353125 0.37125 1.6875 0.75 C0.15755208 1.98697917 -1.37239583 3.22395833 -2.90234375 4.4609375 C-4.44516437 5.7166391 -4.44516437 5.7166391 -5.3125 7.75 C-6.3025 7.75 -7.2925 7.75 -8.3125 7.75 C-7.98035849 4.65001254 -7.2579988 3.6954988 -5 1.4375 C-2.3125 -0.25 -2.3125 -0.25 0 0 Z " fill="#4B7E76" transform="translate(259.3125,278.25)"/>
<path d="M0 0 C1.3921875 0.3403125 1.3921875 0.3403125 2.8125 0.6875 C2.8125 1.6775 2.8125 2.6675 2.8125 3.6875 C-0.5625 4.3125 -0.5625 4.3125 -4.1875 4.6875 C-4.8475 4.0275 -5.5075 3.3675 -6.1875 2.6875 C-4.14987265 -0.14253799 -3.59070275 -0.35202968 0 0 Z " fill="#08B187" transform="translate(119.1875,321.3125)"/>
<path d="M0 0 C0.66 0.33 1.32 0.66 2 1 C1 4 1 4 -1.0625 5.1875 C-1.701875 5.455625 -2.34125 5.72375 -3 6 C-3 7.98 -3 9.96 -3 12 C-3.66 11.67 -4.32 11.34 -5 11 C-5.3125 8.3125 -5.3125 8.3125 -5 5 C-2.5 2.125 -2.5 2.125 0 0 Z " fill="#1C7261" transform="translate(111,293)"/>
<path d="M0 0 C0.33 0.66 0.66 1.32 1 2 C0.34 2 -0.32 2 -1 2 C-1.66 3.65 -2.32 5.3 -3 7 C-3.99 6.67 -4.98 6.34 -6 6 C-6 5.34 -6 4.68 -6 4 C-7.65 3.67 -9.3 3.34 -11 3 C-11 2.67 -11 2.34 -11 2 C-10.06027344 1.90912109 -10.06027344 1.90912109 -9.1015625 1.81640625 C-7.87566406 1.69072266 -7.87566406 1.69072266 -6.625 1.5625 C-5.81289062 1.48128906 -5.00078125 1.40007812 -4.1640625 1.31640625 C-1.95727195 1.10909886 -1.95727195 1.10909886 0 0 Z " fill="#206154" transform="translate(169,280)"/>
<path d="M0 0 C4.03384128 2.07143201 5.92856799 3.96615872 8 8 C6.35 8 4.7 8 3 8 C0 2.25 0 2.25 0 0 Z " fill="#85D9A5" transform="translate(117,246)"/>
<path d="M0 0 C-0.99 1.32 -1.98 2.64 -3 4 C-4.65 3.67 -6.3 3.34 -8 3 C-7.67 2.01 -7.34 1.02 -7 0 C-3.86650268 -1.04449911 -3.01031744 -0.93423645 0 0 Z " fill="#236859" transform="translate(277,302)"/>
<path d="M0 0 C0.33 0 0.66 0 1 0 C1 2.97 1 5.94 1 9 C1.66 9.33 2.32 9.66 3 10 C4.125 12.0625 4.125 12.0625 5 14 C3.35 13.67 1.7 13.34 0 13 C0 8.71 0 4.42 0 0 Z " fill="#064E3F" transform="translate(284,279)"/>
<path d="M0 0 C-1.24663331 0.50833591 -2.49749387 1.00631145 -3.75 1.5 C-4.44609375 1.7784375 -5.1421875 2.056875 -5.859375 2.34375 C-8 3 -8 3 -12 3 C-12 2.01 -12 1.02 -12 0 C-10.37585622 -0.19477739 -8.75063577 -0.38059458 -7.125 -0.5625 C-6.22007813 -0.66691406 -5.31515625 -0.77132813 -4.3828125 -0.87890625 C-2 -1 -2 -1 0 0 Z " fill="#4DAEA1" transform="translate(118,329)"/>
<path d="M0 0 C0.268125 0.61875 0.53625 1.2375 0.8125 1.875 C1.95556848 4.2995233 1.95556848 4.2995233 5 6 C8.63939932 5.68269476 8.63939932 5.68269476 12 5 C12 5.66 12 6.32 12 7 C9.37684968 8.31157516 7.76966564 7.89649988 4.875 7.5625 C3.96492188 7.46066406 3.05484375 7.35882813 2.1171875 7.25390625 C1.41851562 7.17011719 0.71984375 7.08632813 0 7 C0 4.69 0 2.38 0 0 Z " fill="#6C988F" transform="translate(258,294)"/>
<path d="M0 0 C0 2 0 2 -1.375 3.625 C-3 5 -3 5 -5 5 C-5.66 6.32 -6.32 7.64 -7 9 C-7.33 8.01 -7.66 7.02 -8 6 C-7.34 5.01 -6.68 4.02 -6 3 C-5.34 3 -4.68 3 -4 3 C-4 2.34 -4 1.68 -4 1 C-2 0 -2 0 0 0 Z " fill="#387166" transform="translate(204,295)"/>
<path d="M0 0 C0.515625 0.495 1.03125 0.99 1.5625 1.5 C4.80680017 3.49649241 7.26217334 3.21564385 11 3 C11 3.66 11 4.32 11 5 C7.7 5 4.4 5 1 5 C0.67 3.35 0.34 1.7 0 0 Z " fill="#4F8178" transform="translate(291,297)"/>
<path d="M0 0 C0 0.66 0 1.32 0 2 C-2.31 2 -4.62 2 -7 2 C-7 2.66 -7 3.32 -7 4 C-7.99 4 -8.98 4 -10 4 C-10 3.01 -10 2.02 -10 1 C-6.52674819 -0.1577506 -3.63932552 -0.06866652 0 0 Z " fill="#045849" transform="translate(331,291)"/>
<path d="M0 0 C1.98 0 3.96 0 6 0 C5.34 1.32 4.68 2.64 4 4 C3.01 4 2.02 4 1 4 C0.34 3.34 -0.32 2.68 -1 2 C-0.67 1.34 -0.34 0.68 0 0 Z " fill="#3D7367" transform="translate(245,278)"/>
<path d="M0 0 C0 0.33 0 0.66 0 1 C-5.24385089 2.7479503 -9.47322267 3.19392201 -15 3 C-14.67 2.34 -14.34 1.68 -14 1 C-9.45906828 -0.41904116 -4.7056901 -0.09226843 0 0 Z " fill="#538681" transform="translate(332,289)"/>
<path d="M0 0 C0.99 0.33 1.98 0.66 3 1 C1.38405168 3.04119788 -0.2856382 5.04072937 -2 7 C-2.66 7 -3.32 7 -4 7 C-4.33 6.01 -4.66 5.02 -5 4 C-2.6875 1.9375 -2.6875 1.9375 0 0 Z " fill="#538177" transform="translate(217,285)"/>
<path d="M0 0 C1.98 0 3.96 0 6 0 C4.71389765 2.5722047 3.66606019 3.00974907 1 4 C-1.25 3.625 -1.25 3.625 -3 3 C-2.01 2.67 -1.02 2.34 0 2 C0 1.34 0 0.68 0 0 Z " fill="#0A4C40" transform="translate(295,302)"/>
<path d="M0 0 C0.66 0.33 1.32 0.66 2 1 C1.67 1.99 1.34 2.98 1 4 C1.33 4.99 1.66 5.98 2 7 C0.35 7 -1.3 7 -3 7 C-2.625 4.0625 -2.625 4.0625 -2 1 C-1.34 0.67 -0.68 0.34 0 0 Z " fill="#0A5044" transform="translate(171,299)"/>
<path d="M0 0 C0 0.99 0 1.98 0 3 C-0.66 3 -1.32 3 -2 3 C-2.33 3.99 -2.66 4.98 -3 6 C-3.33 5.34 -3.66 4.68 -4 4 C-4.66 4 -5.32 4 -6 4 C-5.67 3.01 -5.34 2.02 -5 1 C-3 0 -3 0 0 0 Z " fill="#0A5D4C" transform="translate(175,281)"/>
<path d="M0 0 C0 1.98 0 3.96 0 6 C-0.33 5.34 -0.66 4.68 -1 4 C-1.99 4.33 -2.98 4.66 -4 5 C-4 3.68 -4 2.36 -4 1 C-1 0 -1 0 0 0 Z " fill="#249977" transform="translate(132,304)"/>
<path d="M0 0 C1.98 0.66 3.96 1.32 6 2 C6 3.32 6 4.64 6 6 C3.37812506 4.95125002 2.20628639 4.35068687 0.75 1.875 C0.5025 1.25625 0.255 0.6375 0 0 Z " fill="#4E8579" transform="translate(237,300)"/>
<path d="M0 0 C1.4606285 2.64738916 2 3.89448334 2 7 C1.01 7 0.02 7 -1 7 C-1 3 -1 3 0 0 Z " fill="#32786E" transform="translate(304,294)"/>
<path d="M0 0 C2.475 0.495 2.475 0.495 5 1 C5.33 1.99 5.66 2.98 6 4 C4.02 4.33 2.04 4.66 0 5 C0 3.35 0 1.7 0 0 Z " fill="#63D385" transform="translate(112,245)"/>
<path d="M0 0 C0.2475 0.61875 0.495 1.2375 0.75 1.875 C2.20628639 4.35068687 3.37812506 4.95125002 6 6 C6 6.66 6 7.32 6 8 C3.13275314 7.42655063 2.1385485 7.1385485 0 5 C-0.125 2.375 -0.125 2.375 0 0 Z " fill="#467A72" transform="translate(53,324)"/>
<path d="M0 0 C0.99 0.33 1.98 0.66 3 1 C3 2.65 3 4.3 3 6 C1.35 6.66 -0.3 7.32 -2 8 C-2 7.01 -2 6.02 -2 5 C-0.68 5 0.64 5 2 5 C1.34 3.35 0.68 1.7 0 0 Z " fill="#3DBE9F" transform="translate(120,320)"/>
<path d="M0 0 C3.3 0 6.6 0 10 0 C9.67 0.66 9.34 1.32 9 2 C8.071875 1.95875 7.14375 1.9175 6.1875 1.875 C2.84190281 1.72863661 2.84190281 1.72863661 0 4 C0 2.68 0 1.36 0 0 Z " fill="#5A8B82" transform="translate(259,283)"/>
</svg>
